<svg xmlns="http://www.w3.org/2000/svg" width="128.885" height="128.885" viewBox="0 0 128.885 128.885">
  <defs>
    <style>
      .cls-1 {
        fill: #656565;
      }
    </style>
  </defs>
  <path id="Trazado_142" data-name="Trazado 142" class="cls-1" d="M128.943,774a64.443,64.443,0,1,0,64.443,64.442A64.515,64.515,0,0,0,128.943,774Zm0,8.8a55.6,55.6,0,0,1,46.893,85.541c-1.417-4.835-4.338-10.553-10.38-13.559-7.413-3.687-4.559-.865-13.659-4.64s-11.254-5-11.254-5l-.081-8.644s3.41-2.586,4.471-10.76c2.126.614,2.848-2.495,2.964-4.48.126-1.92,1.255-7.9-1.345-7.371a53.16,53.16,0,0,0,.758-9.518c-.65-6.712-5.29-13.721-17-14.234-9.959.515-16.424,7.525-17.075,14.237a52.868,52.868,0,0,0,.727,9.525c-2.6-.543-1.483,5.453-1.37,7.371.126,1.986.832,5.106,2.965,4.489,1.059,8.176,4.466,10.783,4.466,10.783l-.085,8.686s-2.156,1.316-11.257,5.084-6.244.78-13.658,4.469C87.761,858.392,85,865.924,83.954,871.13A55.6,55.6,0,0,1,128.943,782.8Z" transform="translate(-64.501 -774)"/>
</svg>
