<svg xmlns="http://www.w3.org/2000/svg" width="176" height="116.511" viewBox="0 0 176 116.511">
  <g id="Grupo_520" data-name="Grupo 520" transform="translate(-105.5 -480.5)">
    <g id="Grupo_281" data-name="Grupo 281" transform="translate(146.212 488.331)">
      <g id="Elipse_2" data-name="Elipse 2" transform="translate(20.831)" fill="none" stroke="#a2a2a2" stroke-width="7">
        <circle cx="26.652" cy="26.652" r="26.652" stroke="none"/>
        <circle cx="26.652" cy="26.652" r="23.152" fill="none"/>
      </g>
      <g id="Sustracción_1" data-name="Sustracción 1" transform="translate(0 49.627)" fill="none">
        <path d="M94.964,47.789H0v-.306a47.836,47.836,0,0,1,.965-9.569A47.221,47.221,0,0,1,8.109,20.935,47.623,47.623,0,0,1,29,3.731,47.241,47.241,0,0,1,37.913.965a47.95,47.95,0,0,1,19.139,0A47.22,47.22,0,0,1,74.03,8.109,47.623,47.623,0,0,1,91.234,29,47.246,47.246,0,0,1,94,37.913a47.834,47.834,0,0,1,.965,9.569c0,.1,0,.2,0,.305Z" stroke="none"/>
        <path d="M 87.41499328613281 40.78872680664063 C 87.33316040039063 40.29558563232422 87.24229431152344 39.80482482910156 87.14239501953125 39.31658554077148 C 86.61109161376953 36.72036361694336 85.81845092773438 34.16690444946289 84.78651428222656 31.72712516784668 C 83.77236938476563 29.32950592041016 82.51707458496094 27.01694488525391 81.05513000488281 24.85320472717285 C 79.60610961914063 22.70820617675781 77.94157409667969 20.69074440002441 76.10784912109375 18.85698509216309 C 74.27397155761719 17.02310562133789 72.25665283203125 15.35868549346924 70.11138916015625 13.90954494476318 C 67.94792938232422 12.44782543182373 65.63526916503906 11.19246578216553 63.23773193359375 10.17834568023682 C 60.79757308959961 9.146245002746582 58.2441520690918 8.353625297546387 55.64842987060547 7.822505474090576 C 52.98101043701172 7.276725292205811 50.23347091674805 7.00000524520874 47.48215103149414 7.00000524520874 C 44.73091125488281 7.00000524520874 41.98347091674805 7.276725292205811 39.31616973876953 7.822485446929932 C 36.72049331665039 8.353605270385742 34.16711044311523 9.146245002746582 31.72707176208496 10.17828559875488 C 29.32951164245605 11.19242572784424 27.01687240600586 12.44780540466309 24.85309219360352 13.90974521636963 C 22.70777130126953 15.35904502868652 20.69043159484863 17.02350616455078 18.85713195800781 18.85686492919922 C 17.02339172363281 20.69066619873047 15.35885143280029 22.70812606811523 13.90947151184082 24.8536262512207 C 12.44791126251221 27.01682472229004 11.19261169433594 29.32940483093262 10.17843151092529 31.72714614868164 C 9.14647102355957 34.16690444946289 8.35383129119873 36.72036361694336 7.822571277618408 39.31642532348633 C 7.722765922546387 39.80419921875 7.631994724273682 40.29442596435547 7.550233840942383 40.78872680664063 L 87.41499328613281 40.78872680664063 M 94.96395111083984 47.78872680664063 L 0.0009714660700410604 47.78872680664063 L 0.000191466067917645 47.64534378051758 L 1.146606427937513e-05 47.48260498046875 C 1.146606427937513e-05 44.26106643676758 0.3245514631271362 41.04150390625 0.9646714925765991 37.91316604614258 C 1.58855152130127 34.86446380615234 2.519431352615356 31.86560440063477 3.731431484222412 29.00020599365234 C 4.921511650085449 26.18660545349121 6.394411563873291 23.47284507751465 8.109271049499512 20.93474578857422 C 9.807771682739258 18.42048454284668 11.75851154327393 16.05606460571289 13.90729141235352 13.90720558166504 C 16.05575180053711 11.75868511199951 18.42007064819336 9.808005332946777 20.93453216552734 8.109325408935547 C 23.47299194335938 6.394245147705078 26.18661117553711 4.921385288238525 29.00005149841309 3.731325387954712 C 31.86539077758789 2.51938533782959 34.86411285400391 1.588425278663635 37.91291046142578 0.9645853042602539 C 41.04119110107422 0.3245052993297577 44.2607307434082 5.310669166647131e-06 47.48215103149414 5.310669166647131e-06 C 50.70365142822266 5.310669166647131e-06 53.92327117919922 0.3245052993297577 57.05161285400391 0.9645853042602539 C 60.10049057006836 1.588425278663635 63.09926986694336 2.51938533782959 65.96461486816406 3.731325387954712 C 68.77812957763672 4.921385288238525 71.49179077148438 6.394245147705078 74.03025054931641 8.109325408935547 C 76.54469299316406 9.807845115661621 78.90903472900391 11.75868511199951 81.05757141113281 13.90720558166504 C 83.20637512207031 16.05606460571289 85.15715026855469 18.42048454284668 86.85562896728516 20.93474578857422 C 88.57048797607422 23.47284507751465 90.04343414306641 26.18660545349121 91.23351287841797 29.00020599365234 C 92.44548797607422 31.86560440063477 93.37637329101563 34.86446380615234 94.00027465820313 37.91316604614258 C 94.64037322998047 41.04134368896484 94.96495056152344 44.26106643676758 94.96495056152344 47.48260498046875 C 94.96495056152344 47.58492660522461 94.96461486816406 47.68608474731445 94.96395111083984 47.78806686401367 L 94.96395111083984 47.78872680664063 Z" stroke="none" fill="#a2a2a2"/>
      </g>
    </g>
  </g>
</svg>
