<svg xmlns="http://www.w3.org/2000/svg" width="31.476" height="30" viewBox="0 0 31.476 30">
  <path id="Trazado_52" data-name="Trazado 52" d="M1585.475,1908.738a1.472,1.472,0,0,1-2.479,1.077l0,0-13.218-13.218h0l-.038-.036-13.226,13.225h0a1.475,1.475,0,1,1-2.058-2.114l14.221-14.221a1.467,1.467,0,0,1,1.063-.453h0l.078,0h.012l.066.005h0a1.474,1.474,0,0,1,.918.461h0l5.805,5.806v-1.356a1.475,1.475,0,1,1,2.951,0v4.307l5.506,5.506,0,0a1.466,1.466,0,0,1,.4,1m-2.951,2.459v10.328a1.475,1.475,0,0,1-1.475,1.475H1578.1v-11.8h-5.9V1923h-13.771a1.475,1.475,0,0,1-1.475-1.475V1911.2l12.787-12.787Zm-15.246,0h-5.9v5.9h5.9Z" transform="translate(-1554 -1893)" fill="#ee3124" fill-rule="evenodd"/>
</svg>
