<svg xmlns="http://www.w3.org/2000/svg" width="30.475" height="30.474" viewBox="0 0 30.475 30.474">
  <g id="Grupo_251" data-name="Grupo 251" transform="translate(-708.15 -1705.64)">
    <path id="Trazado_44" data-name="Trazado 44" d="M735.59,1734.617v1.44c0,.341-.114.549-.549.549h-1.479c-.435,0-.549-.208-.549-.549v-1.478c-1.971-.417-3.789-1.724-3.789-3.884,0-.435.113-.531.549-.531h1.837c.436,0,.644.058.682.531a1.31,1.31,0,0,0,.359.777,2.492,2.492,0,0,0,1.858.624c1.023,0,1.856-.227,1.856-1.288s-1.686-1.08-3.3-1.592c-1.912-.606-3.674-1.363-3.674-3.77,0-2.123,1.648-3.3,3.619-3.656v-1.458c0-.342.113-.55.548-.55h1.479c.436,0,.549.208.549.55v1.515c1.838.379,3.448,1.477,3.448,3.429,0,.455-.114.53-.549.53h-1.857c-.36,0-.417-.265-.512-.511a1.306,1.306,0,0,0-.4-.568,2.521,2.521,0,0,0-1.611-.512c-.625,0-1.666.246-1.666,1.1,0,1.156,2.785,1.573,3.542,1.876,1.364.417,3.373.966,3.373,3.542C739.361,1733.006,737.825,1734.294,735.59,1734.617Z" transform="translate(-10.904 -7.317)" fill="#ee3124" fill-rule="evenodd"/>
    <path id="Trazado_45" data-name="Trazado 45" d="M737.2,1716.591h-6.19a1.428,1.428,0,1,1,0-2.856h2.461a12.359,12.359,0,0,0-22.461,7.142,1.428,1.428,0,1,1-2.857,0,15.224,15.224,0,0,1,27.619-8.851v-2.577a1.428,1.428,0,1,1,2.857,0v5.715a1.427,1.427,0,0,1-1.428,1.428m-27.617,8.571h6.191a1.429,1.429,0,0,1,0,2.857h-2.48a12.371,12.371,0,0,0,22.479-7.143,1.428,1.428,0,1,1,2.857,0,15.214,15.214,0,0,1-27.618,8.832v2.6a1.428,1.428,0,0,1-2.857,0v-5.715a1.43,1.43,0,0,1,1.429-1.428" fill="#ee3124" fill-rule="evenodd"/>
  </g>
</svg>
