<svg xmlns="http://www.w3.org/2000/svg" width="29.63" height="25" viewBox="0 0 29.63 25">
  <path id="Trazado_47" data-name="Trazado 47" d="M282.033,890.422l-.014.01h0L270,898.755h0a1.382,1.382,0,0,1-1.56.014h0l-.006,0h0l-6.213-4.142-6.435,3.785V904.1h25.463a1.389,1.389,0,1,1,0,2.778H254.391A1.389,1.389,0,0,1,253,905.484V883.262a1.389,1.389,0,0,1,2.778,0v11.923l5.777-3.4,0,0a1.37,1.37,0,0,1,1.472.037h0l.005,0,0,0,6.152,4.1,11.262-7.8h0a1.388,1.388,0,1,1,1.579,2.282Z" transform="translate(-253.002 -881.873)" fill="#ee3124" fill-rule="evenodd"/>
</svg>
