<svg xmlns="http://www.w3.org/2000/svg" width="24.476" height="24.477" viewBox="0 0 24.476 24.477">
  <defs>
    <style>
      .cls-1 {
        fill: #fff;
      }

      .cls-2 {
        fill: #d3191e;
      }
    </style>
  </defs>
  <g id="Grupo_250" data-name="Grupo 250" transform="translate(-91.85 59.159) rotate(-90)">
    <path id="Trazado_40" data-name="Trazado 40" class="cls-1" d="M46.921,91.85a12.238,12.238,0,1,0,12.238,12.238A12.251,12.251,0,0,0,46.921,91.85"/>
    <path id="Trazado_41" data-name="Trazado 41" class="cls-2" d="M65.819,120.251a1.211,1.211,0,0,1,.737,1.383,1.313,1.313,0,0,1-1.264,1.043,1.411,1.411,0,0,1-.585-.133c-.084-.037-8.314-3.911-8.246-7.367-.068-3.44,8.162-7.314,8.246-7.353a1.433,1.433,0,0,1,.585-.132,1.313,1.313,0,0,1,1.264,1.043,1.211,1.211,0,0,1-.737,1.384c-2.46,1.111-6.854,3.747-6.854,5.052s4.462,4,6.854,5.079" transform="translate(-15.255 -11.097)"/>
  </g>
</svg>
