<svg xmlns="http://www.w3.org/2000/svg" width="24.64" height="35.323" viewBox="0 0 24.64 35.323">
  <defs>
    <style>
      .cls-1 {
        fill: #ee3124;
      }
    </style>
  </defs>
  <g id="Grupo_313" data-name="Grupo 313" transform="translate(3447.754 -2268.32)">
    <path id="Trazado_147" data-name="Trazado 147" class="cls-1" d="M-3425.292,2302.991c.29-2.645,1.413-12.789,1.992-13.332,0,0,.761-2.427-.8-3.659-.435-.326-4.637-7.219-6.123-8.306v-7.542c.024-.978.012-1.832-1.833-1.832h-13.87c-1.413,0-1.832.42-1.832,1.832V2292.1c0,1.413.419,1.832,1.832,1.832h8.578l-.217-1.253h-2.981l0-23.145h8.529a.573.573,0,0,1,.58.58v21.209c0,.254-.885.435-1.1.543a9.309,9.309,0,0,1-1.811-2.608s-.471-5.253-3.116-5.253h-.218s-2.029.181-.362,5.942l.761,6.412a14.539,14.539,0,0,0,3.116,5.869v.724a.688.688,0,0,0,.688.689h7.5A.735.735,0,0,0-3425.292,2302.991Zm-18.585-10.346h-2.045a.572.572,0,0,1-.58-.58v-21.913a.572.572,0,0,1,.58-.58h2.045Z"/>
    <path id="Trazado_148" data-name="Trazado 148" class="cls-1" d="M-3429.648,2274.205a2.013,2.013,0,0,0,.706,1.533,2.012,2.012,0,0,0-.706,1.533,2.019,2.019,0,0,0,2.019,2.019,2.019,2.019,0,0,0,2.018-2.019,2.014,2.014,0,0,0-.706-1.533,2.014,2.014,0,0,0,.706-1.533,2.019,2.019,0,0,0-2.018-2.019A2.019,2.019,0,0,0-3429.648,2274.205Z" transform="translate(-7.139 -1.524)"/>
  </g>
</svg>
