<svg id="Grupo_267" data-name="Grupo 267" xmlns="http://www.w3.org/2000/svg" width="25.275" height="30.372" viewBox="0 0 25.275 30.372">
  <defs>
    <style>
      .cls-1 {
        fill: #ee3124;
      }
    </style>
  </defs>
  <path id="Trazado_63" data-name="Trazado 63" class="cls-1" d="M1447.78,1710.286v9.274a.821.821,0,0,1-.821.82h-12.038a.822.822,0,0,1-.821-.82v-22.578a.821.821,0,0,1,.821-.82h12.038a.822.822,0,0,1,.8.649l1.137-.841a2.186,2.186,0,0,0-1.939-1.176h-12.038a2.189,2.189,0,0,0-2.189,2.188v26a2.188,2.188,0,0,0,2.189,2.187h12.038a2.188,2.188,0,0,0,2.189-2.187v-13.408Zm-6.839,13.913a1.425,1.425,0,1,1,1.425-1.425A1.425,1.425,0,0,1,1440.94,1724.2Z" transform="translate(-1432.732 -1694.795)"/>
  <g id="Grupo_266" data-name="Grupo 266" transform="translate(2.175 0.342)">
    <path id="Trazado_64" data-name="Trazado 64" class="cls-1" d="M1460.928,1707.6l-.284-.785-2.753-7.619a.378.378,0,0,0-.188-.211,2.982,2.982,0,0,0-1.315-.295c-2.178-.025-5.2,1.774-8.131,3.516a44.791,44.791,0,0,1-4.6,2.515,44.171,44.171,0,0,0,4.439-2.864c2.79-1.951,5.675-3.971,7.85-4.105a3.647,3.647,0,0,1,.444,0l-.2-.383a.361.361,0,0,0-.205-.178,2.8,2.8,0,0,0-1.279-.11c-2.06.261-4.686,2.386-7.224,4.441a32.452,32.452,0,0,1-4.76,3.438,32.365,32.365,0,0,0,4.55-3.737c2.409-2.212,4.9-4.5,6.938-4.889a3.341,3.341,0,0,1,.373-.05l-.317-.485a.363.363,0,0,0-.222-.151,2.63,2.63,0,0,0-1.245.052,8.4,8.4,0,0,0-3.337,2.192v0a1.848,1.848,0,0,0-1.476-.438l-9.65-.035a.484.484,0,0,0-.485.484v21.829a.485.485,0,0,0,.485.485H1449.6a.485.485,0,0,0,.484-.485v-7.7c.415-.242,1.178-.515,1.6-.768,2.834-1.687,5.766-3.432,7.73-3.408a2.214,2.214,0,0,1,.982.214.381.381,0,0,0,.529-.47Zm-7.013-1.331c-.2,2.13-1.8,3.918-3.576,3.992s-3.06-1.593-2.863-3.724,1.8-3.92,3.577-3.993S1454.113,1704.141,1453.916,1706.273Z" transform="translate(-1437.852 -1695.601)"/>
    <path id="Trazado_65" data-name="Trazado 65" class="cls-1" d="M1467.743,1716.513c-.243-.492-.641-.488-1.126-.293l-.476.2c-.2.08-.321.1-.384-.026s.032-.285.169-.391c.4-.308.571.036.839-.171a.511.511,0,0,0,.171-.629c-.165-.335-.542-.266-.912-.072l-.26-.527a.06.06,0,0,0-.1-.022l-.526.407a.1.1,0,0,0-.027.117l.25.505a1.263,1.263,0,0,0-.31,1.487.711.711,0,0,0,1.013.316l.619-.24c.17-.065.266-.075.323.04.086.173-.029.35-.193.476-.393.306-.634-.081-.919.14a.511.511,0,0,0-.155.632c.1.214.448.406,1.047.085l.257.52a.061.061,0,0,0,.1.022l.524-.407a.1.1,0,0,0,.028-.118l-.253-.514A1.347,1.347,0,0,0,1467.743,1716.513Z" transform="translate(-1453.425 -1706.508)"/>
  </g>
</svg>
