<svg xmlns="http://www.w3.org/2000/svg" width="33.967" height="29.86" viewBox="0 0 33.967 29.86">
  <defs>
    <style>
      .cls-1 {
        fill: #ee3124;
      }
    </style>
  </defs>
  <g id="Grupo_270" data-name="Grupo 270" transform="translate(-1302.773 -1698.927)">
    <path id="Unión_1" data-name="Unión 1" class="cls-1" d="M17.4,19.766a16.776,16.776,0,0,0,15.525-7.673,1.869,1.869,0,0,0,.168-2.1c-1.305-2.048-4.159-7.232-5.467-9.5-.371-.6-.913-.708-1.544,0-1.855,2.1-6.443,6.364-12.572,5.581A13.764,13.764,0,0,0,.215,11.654,1.463,1.463,0,0,0,.16,13.083c.2.368,4.667,8.79,5.024,9.413s.916.785,1.555.091C8.006,21.211,10.972,19.246,17.4,19.766ZM14.221,7.853c.152-.1.64-.421.762-.495a.236.236,0,0,1,.337.089l.425.665c.061.1.245.079.313.041A5.3,5.3,0,0,1,17.5,7.606c.365-.083.355.1.419.247.038.086.174.52.279.857a.377.377,0,0,1-.24.47,4.2,4.2,0,0,0-1.593.631c-.766.5-.793,1-.581,1.335.242.381.82.375,2.057.093,1.733-.418,2.7-.123,3.394.958a2.638,2.638,0,0,1-.5,3.354.341.341,0,0,0-.067.4c.03.052.283.448.464.73a.336.336,0,0,1-.032.426l-.746.485c-.071.037-.214.1-.369-.149-.073-.117-.282-.443-.42-.66a.267.267,0,0,0-.3-.111,5.823,5.823,0,0,1-1.939.682.331.331,0,0,1-.312-.259l-.368-1.12c-.064-.175.115-.235.213-.248a4.862,4.862,0,0,0,2-.718c.673-.437.969-1.017.675-1.479s-.86-.486-1.923-.216c-1.533.389-2.773.354-3.508-.8a2.555,2.555,0,0,1,.478-3.244.344.344,0,0,0,.049-.346c-.168-.261-.46-.718-.485-.761A.229.229,0,0,1,14.221,7.853Z" transform="translate(1303.404 1698.927)"/>
    <path id="Trazado_78" data-name="Trazado 78" class="cls-1" d="M1321.657,1744.465c-7.677-.7-10.706,2.956-11.742,4.827-.345.623-.727.562-.931.177s-4.666-8.79-4.857-9.159-.362-.208-.434-.125a5.621,5.621,0,0,0-.867,1.293c-.094.187-.081.259.167.731.956,1.782,4.275,7.968,5.506,10.246.361.622,1.087.9,1.682,0,1.328-2.484,4.679-6.7,11.963-6.033,9.247.838,12.811-3.626,13.822-5.325.06-.1.4-.513.173-.907s-.426-.737-.571-.993c-.083-.1-.243-.148-.512.165C1332.962,1741.865,1328.812,1745.112,1321.657,1744.465Z" transform="translate(0 -24.242)"/>
  </g>
</svg>
