<svg xmlns="http://www.w3.org/2000/svg" width="30.973" height="30" viewBox="0 0 30.973 30">
  <path id="Trazado_48" data-name="Trazado 48" d="M281.884,730.649v0a1.452,1.452,0,0,1-1.452,1.452H252.365a1.452,1.452,0,0,1-1.452-1.452v0h0s0-5.291,3.866-7.214c2.446-1.218,1.5-.229,4.507-1.475A34.733,34.733,0,0,0,263,720.283l.028-2.866s-1.124-.86-1.474-3.558c-.7.2-.936-.826-.978-1.481-.037-.634-.407-2.611.452-2.433a17.449,17.449,0,0,1-.241-3.143,5.69,5.69,0,0,1,5.634-4.7c3.865.169,5.4,2.482,5.611,4.7a17.593,17.593,0,0,1-.251,3.14c.858-.176.485,1.8.444,2.432-.038.655-.276,1.681-.978,1.478-.351,2.7-1.475,3.551-1.475,3.551l.027,2.852s.71.406,3.713,1.65,2.061.314,4.508,1.531c3.865,1.923,3.865,7.214,3.865,7.214Z" transform="translate(-250.912 -702.104)" fill="#ee3124" fill-rule="evenodd"/>
</svg>
