<svg xmlns="http://www.w3.org/2000/svg" width="30" height="30" viewBox="0 0 30 30">
  <g id="Grupo_252" data-name="Grupo 252" transform="translate(-700.604 -1509.542)">
    <path id="Trazado_49" data-name="Trazado 49" d="M738.645,1545.871a1.7,1.7,0,1,0,1.7,1.7A1.7,1.7,0,0,0,738.645,1545.871Z" transform="translate(-19.584 -19.578)" fill="#ee3124"/>
    <path id="Trazado_50" data-name="Trazado 50" d="M723.647,1534.278a1.7,1.7,0,1,0-1.7-1.7A1.7,1.7,0,0,0,723.647,1534.278Z" transform="translate(-11.502 -11.497)" fill="#ee3124"/>
    <path id="Trazado_51" data-name="Trazado 51" d="M715.6,1509.542a15,15,0,1,0,15,15A15,15,0,0,0,715.6,1509.542Zm-3.515,8.085a3.4,3.4,0,1,1-3.4,3.4A3.4,3.4,0,0,1,712.088,1517.627Zm7.03,13.82a3.4,3.4,0,1,1,3.394-3.4A3.371,3.371,0,0,1,719.118,1531.447Zm3.262-12.332-12.2,12.2a.957.957,0,0,1-1.354-1.354l12.2-12.2a.982.982,0,0,1,1.354,0A.96.96,0,0,1,722.38,1519.115Z" fill="#ee3124"/>
  </g>
</svg>
