<svg xmlns="http://www.w3.org/2000/svg" width="40" height="40.002" viewBox="0 0 40 40.002">
  <path id="Trazado_60" data-name="Trazado 60" d="M262.121,318.608a20,20,0,1,0,20,20A20,20,0,0,0,262.121,318.608Zm8.2,25.55a1.875,1.875,0,1,1-2.65,2.653l-5.551-5.55-5.549,5.55a1.875,1.875,0,0,1-2.652-2.653l5.549-5.549-5.549-5.549a1.876,1.876,0,0,1,2.652-2.654l5.549,5.551,5.551-5.551a1.875,1.875,0,0,1,2.65,2.654l-5.549,5.549Z" transform="translate(-242.121 -318.608)" fill="#ee3124" fill-rule="evenodd"/>
</svg>
