<svg xmlns="http://www.w3.org/2000/svg" width="164.537" height="108.723" viewBox="0 0 164.537 108.723">
  <g id="Grupo_522" data-name="Grupo 522" transform="translate(-124.235 -480.091)">
    <path id="Trazado_93" data-name="Trazado 93" d="M2401.568,443.057H2285.489c-1.115,0-2.02-.4-2.02-.894v-7.1c0-.494.9-.894,2.02-.894h116.079c1.115,0,2.02.4,2.02.894v7.1C2403.588,442.656,2402.683,443.057,2401.568,443.057Zm-114.059-1.788h112.039v-5.308H2287.509Z" transform="translate(-2137.292 62.786)" fill="#656565"/>
    <path id="Trazado_92" data-name="Trazado 92" d="M2347.286,520.576H2197.729a7.647,7.647,0,0,1-7.49-7.777V419.63a7.646,7.646,0,0,1,7.49-7.777h149.557a7.646,7.646,0,0,1,7.49,7.777V512.8A7.647,7.647,0,0,1,2347.286,520.576ZM2197.729,414.983a4.568,4.568,0,0,0-4.476,4.647V512.8a4.569,4.569,0,0,0,4.476,4.647h149.557a4.569,4.569,0,0,0,4.475-4.647V419.63a4.568,4.568,0,0,0-4.475-4.647Z" transform="translate(-2066.003 68.238)" fill="#656565"/>
    <path id="Trazado_97" data-name="Trazado 97" d="M2367.424,488.981H2284.9c-.791,0-1.432-.4-1.432-.894s.642-.894,1.432-.894h82.523c.79,0,1.432.4,1.432.894S2368.214,488.981,2367.424,488.981Z" transform="translate(-2102.408 45.975)" fill="#656565"/>
    <path id="Trazado_98" data-name="Trazado 98" d="M2367.424,498.981H2284.9c-.791,0-1.432-.4-1.432-.894s.642-.894,1.432-.894h82.523c.79,0,1.432.4,1.432.894S2368.214,498.981,2367.424,498.981Z" transform="translate(-2102.408 43.019)" fill="#656565"/>
    <path id="Trazado_99" data-name="Trazado 99" d="M2367.424,508.981H2284.9c-.791,0-1.432-.4-1.432-.894s.642-.894,1.432-.894h82.523c.79,0,1.432.4,1.432.894S2368.214,508.981,2367.424,508.981Z" transform="translate(-2102.408 40.064)" fill="#656565"/>
    <path id="Trazado_100" data-name="Trazado 100" d="M2214.363,540.462a.894.894,0,0,1-.894-.894v-6.651a.894.894,0,1,1,1.788,0v6.651A.894.894,0,0,1,2214.363,540.462Z" transform="translate(-2080.004 42.441)" fill="#656565"/>
    <path id="Trazado_101" data-name="Trazado 101" d="M2225.073,540.462a.894.894,0,0,1-.894-.894v-6.651a.894.894,0,1,1,1.788,0v6.651A.894.894,0,0,1,2225.073,540.462Z" transform="translate(-2086.459 42.441)" fill="#656565"/>
    <path id="Trazado_102" data-name="Trazado 102" d="M2235.792,540.462a.894.894,0,0,1-.894-.894v-6.651a.894.894,0,1,1,1.788,0v6.651A.894.894,0,0,1,2235.792,540.462Z" transform="translate(-2080.514 42.441)" fill="#656565"/>
    <path id="Trazado_103" data-name="Trazado 103" d="M2246.5,540.462a.894.894,0,0,1-.894-.894v-6.651a.894.894,0,1,1,1.788,0v6.651A.894.894,0,0,1,2246.5,540.462Z" transform="translate(-2083.994 42.441)" fill="#656565"/>
    <path id="Trazado_104" data-name="Trazado 104" d="M2257.212,540.462a.894.894,0,0,1-.894-.894v-6.651a.894.894,0,1,1,1.788,0v6.651A.894.894,0,0,1,2257.212,540.462Z" transform="translate(-2087.474 42.441)" fill="#656565"/>
    <path id="Trazado_105" data-name="Trazado 105" d="M2267.932,540.462a.894.894,0,0,1-.894-.894v-6.651a.894.894,0,0,1,1.788,0v6.651A.894.894,0,0,1,2267.932,540.462Z" transform="translate(-2090.957 42.441)" fill="#656565"/>
    <path id="Trazado_106" data-name="Trazado 106" d="M2356.312,540.462a.894.894,0,0,1-.894-.894v-6.651a.894.894,0,1,1,1.788,0v6.651A.894.894,0,0,1,2356.312,540.462Z" transform="translate(-2119.673 42.441)" fill="#656565"/>
    <path id="Trazado_107" data-name="Trazado 107" d="M2367.033,540.462a.894.894,0,0,1-.894-.894v-6.651a.894.894,0,1,1,1.788,0v6.651A.894.894,0,0,1,2367.033,540.462Z" transform="translate(-2123.156 42.441)" fill="#656565"/>
    <path id="Trazado_108" data-name="Trazado 108" d="M2377.743,540.462a.894.894,0,0,1-.894-.894v-6.651a.894.894,0,0,1,1.788,0v6.651A.894.894,0,0,1,2377.743,540.462Z" transform="translate(-2126.636 42.441)" fill="#656565"/>
    <path id="Trazado_109" data-name="Trazado 109" d="M2388.462,540.462a.894.894,0,0,1-.894-.894v-6.651a.894.894,0,1,1,1.788,0v6.651A.894.894,0,0,1,2388.462,540.462Z" transform="translate(-2117.966 42.441)" fill="#656565"/>
    <path id="Trazado_110" data-name="Trazado 110" d="M2399.172,540.462a.894.894,0,0,1-.894-.894v-6.651a.894.894,0,1,1,1.788,0v6.651A.894.894,0,0,1,2399.172,540.462Z" transform="translate(-2124.421 42.441)" fill="#656565"/>
    <path id="Trazado_111" data-name="Trazado 111" d="M2409.892,540.462a.894.894,0,0,1-.894-.894v-6.651a.894.894,0,1,1,1.788,0v6.651A.894.894,0,0,1,2409.892,540.462Z" transform="translate(-2130.882 42.441)" fill="#656565"/>
    <path id="Trazado_112" data-name="Trazado 112" d="M2285.342,540.462a.894.894,0,0,1-.894-.894v-6.651a.894.894,0,1,1,1.788,0v6.651A.894.894,0,0,1,2285.342,540.462Z" transform="translate(-2096.614 42.441)" fill="#656565"/>
    <path id="Trazado_113" data-name="Trazado 113" d="M2296.052,540.462a.894.894,0,0,1-.894-.894v-6.651a.894.894,0,1,1,1.788,0v6.651A.894.894,0,0,1,2296.052,540.462Z" transform="translate(-2100.094 42.441)" fill="#656565"/>
    <path id="Trazado_114" data-name="Trazado 114" d="M2306.762,540.462a.894.894,0,0,1-.894-.894v-6.651a.894.894,0,1,1,1.788,0v6.651A.894.894,0,0,1,2306.762,540.462Z" transform="translate(-2103.573 42.441)" fill="#656565"/>
    <path id="Trazado_115" data-name="Trazado 115" d="M2317.482,540.462a.894.894,0,0,1-.894-.894v-6.651a.894.894,0,1,1,1.788,0v6.651A.894.894,0,0,1,2317.482,540.462Z" transform="translate(-2107.056 42.441)" fill="#656565"/>
    <path id="Trazado_116" data-name="Trazado 116" d="M2328.192,540.462a.894.894,0,0,1-.894-.894v-6.651a.894.894,0,1,1,1.788,0v6.651A.894.894,0,0,1,2328.192,540.462Z" transform="translate(-2110.536 42.441)" fill="#656565"/>
    <path id="Trazado_117" data-name="Trazado 117" d="M2338.913,540.462a.894.894,0,0,1-.894-.894v-6.651a.894.894,0,1,1,1.788,0v6.651A.894.894,0,0,1,2338.913,540.462Z" transform="translate(-2114.02 42.441)" fill="#656565"/>
    <g id="Grupo_521" data-name="Grupo 521" transform="translate(-21 24)">
      <g id="Grupo_281" data-name="Grupo 281" transform="translate(161.211 495.33)">
        <g id="Elipse_2" data-name="Elipse 2" transform="translate(7.647)" fill="none" stroke="#656565" stroke-width="2">
          <circle cx="9.784" cy="9.784" r="9.784" stroke="none"/>
          <circle cx="9.784" cy="9.784" r="8.784" fill="none"/>
        </g>
        <g id="Sustracción_1" data-name="Sustracción 1" transform="translate(0 18.218)" fill="none">
          <path d="M34.861,17.543H0v-.112a17.56,17.56,0,0,1,.354-3.513A17.335,17.335,0,0,1,2.977,7.685,17.482,17.482,0,0,1,10.646,1.37,17.342,17.342,0,0,1,13.918.354a17.6,17.6,0,0,1,7.026,0,17.334,17.334,0,0,1,6.233,2.623,17.482,17.482,0,0,1,6.315,7.669,17.344,17.344,0,0,1,1.016,3.272,17.56,17.56,0,0,1,.354,3.513c0,.038,0,.075,0,.112Z" stroke="none"/>
          <path d="M 32.74702453613281 15.5430965423584 C 32.69692993164063 15.13144302368164 32.63046264648438 14.72268295288086 32.54781723022461 14.31878662109375 C 32.34523773193359 13.32887649536133 32.04300689697266 12.35526657104492 31.6495361328125 11.42500591278076 C 31.26289558410645 10.51092624664307 30.78436660766602 9.629345893859863 30.22714614868164 8.804646492004395 C 29.67489624023438 7.987156391143799 29.04055595397949 7.218326568603516 28.34176635742188 6.519506454467773 C 27.64290618896484 5.820656299591064 26.87411689758301 5.186346530914307 26.05658531188965 4.634106159210205 C 25.23192596435547 4.076926231384277 24.35032653808594 3.598386287689209 23.4362850189209 3.211766481399536 C 22.50588607788086 2.818236351013184 21.53229522705078 2.516016244888306 20.54255676269531 2.313506364822388 C 19.52583503723145 2.105476379394531 18.47880554199219 1.999996304512024 17.43054580688477 1.999996304512024 C 16.38232612609863 1.999996304512024 15.33532619476318 2.105476379394531 14.31863594055176 2.313496351242065 C 13.32892608642578 2.516006469726563 12.35534572601318 2.818236351013184 11.42497634887695 3.211746454238892 C 10.51094627380371 3.598376274108887 9.629345893859863 4.0769362449646 8.804586410522461 4.634166240692139 C 7.987006187438965 5.186496257781982 7.218215942382813 5.820806503295898 6.519556045532227 6.519496440887451 C 5.820796012878418 7.218276500701904 5.186456203460693 7.98711633682251 4.634086132049561 8.804756164550781 C 4.076945781707764 9.629365921020508 3.598415851593018 10.51093673706055 3.211796045303345 11.4249963760376 C 2.818325996398926 12.35526657104492 2.516095876693726 13.32887649536133 2.313525915145874 14.31872653961182 C 2.230863571166992 14.72272872924805 2.164391994476318 15.13151264190674 2.114294767379761 15.5430965423584 L 32.74702453613281 15.5430965423584 M 34.86096572875977 17.5430965423584 L 0.0003559698525350541 17.5430965423584 L 6.596984894713387e-05 17.49045562744141 L -4.030151558254147e-06 17.43071556091309 C -4.030151558254147e-06 16.24809646606445 0.119145967066288 15.06620597839355 0.3541259765625 13.91780662536621 C 0.5831559896469116 12.7986364364624 0.9248759746551514 11.69776630401611 1.369795918464661 10.64587593078613 C 1.806666016578674 9.613016128540039 2.347365856170654 8.616806030273438 2.976886034011841 7.685076236724854 C 3.600405931472778 6.762106418609619 4.316505908966064 5.894136428833008 5.105326175689697 5.10529613494873 C 5.894015789031982 4.316576480865479 6.761946201324463 3.600486278533936 7.684996128082275 2.976906299591064 C 8.616855621337891 2.347306251525879 9.613025665283203 1.806626319885254 10.64582633972168 1.36975634098053 C 11.69768619537354 0.9248563647270203 12.79850578308105 0.5831063389778137 13.91770553588867 0.3540963530540466 C 15.06609630584717 0.1191263645887375 16.24797630310059 -3.636169367382536e-06 17.43054580688477 -3.636169367382536e-06 C 18.61315536499023 -3.636169367382536e-06 19.79506683349609 0.1191263645887375 20.94346618652344 0.3540963530540466 C 22.06270599365234 0.5831063389778137 23.16354560852051 0.9248563647270203 24.21539688110352 1.36975634098053 C 25.24823570251465 1.806626319885254 26.24441528320313 2.347306251525879 27.17626571655273 2.976906299591064 C 28.09931564331055 3.600426435470581 28.96725654602051 4.316576480865479 29.7559757232666 5.10529613494873 C 30.54479598999023 5.894136428833008 31.26091575622559 6.762106418609619 31.88442611694336 7.685076236724854 C 32.51395416259766 8.616806030273438 33.05465698242188 9.613016128540039 33.49153518676758 10.64587593078613 C 33.93645477294922 11.69776630401611 34.27817535400391 12.7986364364624 34.50720596313477 13.91780662536621 C 34.7421875 15.06614589691162 34.86133575439453 16.24809646606445 34.86133575439453 17.43071556091309 C 34.86133575439453 17.46827697753906 34.8612060546875 17.50541687011719 34.86096572875977 17.5428466796875 L 34.86096572875977 17.5430965423584 Z" stroke="none" fill="#656565"/>
        </g>
      </g>
    </g>
    <path id="Trazado_239" data-name="Trazado 239" d="M2367.424,488.981H2284.9c-.791,0-1.432-.4-1.432-.894s.642-.894,1.432-.894h82.523c.79,0,1.432.4,1.432.894S2368.214,488.981,2367.424,488.981Z" transform="translate(-2102.408 38.975)" fill="#656565"/>
  </g>
</svg>
