<svg xmlns="http://www.w3.org/2000/svg" width="20.599" height="20.598" viewBox="0 0 20.599 20.598">
  <defs>
    <style>
      .cls-1 {
        fill: #fff;
      }
    </style>
  </defs>
  <g id="Grupo_2" data-name="Grupo 2" transform="translate(-845.782 -483.472)">
    <path id="Trazado_62" data-name="Trazado 62" class="cls-1" d="M856.081,504.07a10.3,10.3,0,1,0-10.3-10.3A10.31,10.31,0,0,0,856.081,504.07Zm-3.066-14.562a1.019,1.019,0,0,1-.62-1.164,1.106,1.106,0,0,1,1.064-.878,1.184,1.184,0,0,1,.492.112c.071.031,7,3.291,6.94,6.2.057,2.9-6.869,6.156-6.94,6.188a1.2,1.2,0,0,1-.492.111,1.106,1.106,0,0,1-1.064-.877,1.019,1.019,0,0,1,.62-1.164c2.07-.935,5.768-3.154,5.768-4.252S855.028,490.418,853.015,489.508Z"/>
  </g>
</svg>
