<svg xmlns="http://www.w3.org/2000/svg" width="19.007" height="19.006" viewBox="0 0 19.007 19.006">
  <g id="Grupo_275" data-name="Grupo 275" transform="translate(53.689 110.857) rotate(180)">
    <path id="Trazado_40" data-name="Trazado 40" d="M44.185,110.857a9.5,9.5,0,1,0-9.5-9.5,9.513,9.513,0,0,0,9.5,9.5" transform="translate(0 0)" fill="#ee3124"/>
    <path id="Trazado_41" data-name="Trazado 41" d="M57.123,109.443a.853.853,0,0,1-.637-1,1.1,1.1,0,0,1,1.092-.752,1.424,1.424,0,0,1,.505.1c.072.027,7.183,2.821,7.124,5.313.059,2.481-7.052,5.275-7.124,5.3a1.447,1.447,0,0,1-.505.095,1.1,1.1,0,0,1-1.092-.752.853.853,0,0,1,.637-1c2.125-.8,5.922-2.7,5.922-3.644s-3.855-2.883-5.922-3.663" transform="translate(-16.183 -11.742)" fill="#fff"/>
  </g>
</svg>
