<svg id="Grupo_269" data-name="Grupo 269" xmlns="http://www.w3.org/2000/svg" width="24.866" height="35.387" viewBox="0 0 24.866 35.387">
  <defs>
    <style>
      .cls-1 {
        fill: #ee3124;
      }
    </style>
  </defs>
  <path id="Trazado_73" data-name="Trazado 73" class="cls-1" d="M1571.826,1708.242l-1.8-7.569a2.451,2.451,0,0,0-2.959-1.825,2.778,2.778,0,0,0-1.95,1.663c-.271.673-1.474,3.716-1.756,4.345a.778.778,0,0,1-.35.351c-.238.107-2.632,1.126-2.632,1.126v.005a1.388,1.388,0,0,0,1.067,2.56v.005l3.179-1.332a1.794,1.794,0,0,0,.863-.842c.091-.16.367-.826.592-1.372l1.917,8.083c0,4.473,0,12.523,0,12.523a2.13,2.13,0,0,0,2.1,2.264,2.168,2.168,0,0,0,2.158-2.248s.011-14.088.011-14.783A17.461,17.461,0,0,0,1571.826,1708.242Z" transform="translate(-1547.396 -1692.842)"/>
  <path id="Trazado_74" data-name="Trazado 74" class="cls-1" d="M1568.028,1685.27a2.816,2.816,0,1,1-2.821,2.816A2.819,2.819,0,0,1,1568.028,1685.27Z" transform="translate(-1550.549 -1685.27)"/>
  <path id="Trazado_75" data-name="Trazado 75" class="cls-1" d="M1544.035,1713.449h0l-4.369-8.834v.006a1.992,1.992,0,0,0-1.8-1.132h-4.028a1.992,1.992,0,0,0-1.992,1.991v25.391h12.408v-16.423A2.332,2.332,0,0,0,1544.035,1713.449Zm-5.169,11.347a.3.3,0,0,0-.233.267c0,.053.007.459.012.749a.294.294,0,0,1-.216.3l-.771.019c-.069-.005-.2-.027-.2-.278,0-.12-.006-.454-.01-.677a.233.233,0,0,0-.169-.216,5.029,5.029,0,0,1-1.74-.378.284.284,0,0,1-.113-.332c.035-.146.172-.718.237-.994.031-.158.191-.122.269-.087a4.19,4.19,0,0,0,1.8.382c.7-.018,1.176-.31,1.169-.786s-.415-.748-1.319-1.032c-1.311-.409-2.208-1-2.227-2.181a2.214,2.214,0,0,1,1.826-2.177c.063-.018.2-.125.192-.235-.005-.269-.014-.738-.012-.78a.2.2,0,0,1,.2-.2c.159,0,.664-.02.787-.019a.2.2,0,0,1,.207.22c0,.036.009.445.013.682,0,.1.144.171.212.173a4.607,4.607,0,0,1,1.31.248c.306.1.215.235.2.373-.012.08-.106.462-.184.758a.323.323,0,0,1-.391.236,3.651,3.651,0,0,0-1.461-.257c-.791.02-1.041.38-1.035.723.006.39.435.648,1.475,1,1.469.478,2.053,1.136,2.069,2.246A2.285,2.285,0,0,1,1538.866,1724.8Z" transform="translate(-1531.853 -1695.481)"/>
</svg>
