<svg xmlns="http://www.w3.org/2000/svg" width="32.195" height="30.051" viewBox="0 0 32.195 30.051">
  <defs>
    <style>
      .cls-1 {
        fill: #ee3124;
        fill-rule: evenodd;
      }
    </style>
  </defs>
  <path id="Trazado_91" data-name="Trazado 91" class="cls-1" d="M984.088,1692.605a1.1,1.1,0,0,0-.368-.817l0,0-3.677-3.309,0,0a1.1,1.1,0,1,0-1.47,1.634l0,0,1.54,1.386H969.348a11.763,11.763,0,0,0-8.361,21.226h-5.116l1.54-1.386,0,0a1.1,1.1,0,1,0-1.47-1.635l0,0-3.677,3.309,0,0a1.091,1.091,0,0,0,0,1.634l0,0,3.677,3.309,0,0a1.1,1.1,0,1,0,1.47-1.634l0,0-1.54-1.386h12.936a1.091,1.091,0,0,0,.419-.084,11.764,11.764,0,0,0,5.611-21.143h5.274l-1.54,1.387,0,0a1.1,1.1,0,1,0,1.47,1.634l0,0,3.677-3.309,0,0A1.1,1.1,0,0,0,984.088,1692.605Zm-15.109,15.506v1.1c0,.26-.086.418-.418.418h-1.127c-.331,0-.418-.159-.418-.418v-1.126c-1.5-.318-2.887-1.313-2.887-2.959,0-.331.086-.4.419-.4h1.4c.332,0,.491.044.52.4a.994.994,0,0,0,.274.592,1.9,1.9,0,0,0,1.415.476c.779,0,1.414-.173,1.414-.981s-1.285-.823-2.512-1.213c-1.457-.462-2.8-1.039-2.8-2.872,0-1.617,1.255-2.511,2.757-2.786v-1.111c0-.26.086-.419.418-.419h1.127c.332,0,.418.159.418.419v1.154c1.4.289,2.627,1.126,2.627,2.613,0,.346-.086.4-.418.4h-1.414c-.275,0-.318-.2-.39-.389a.994.994,0,0,0-.3-.433,1.918,1.918,0,0,0-1.227-.39c-.477,0-1.27.188-1.27.838,0,.881,2.122,1.2,2.7,1.429,1.04.318,2.57.736,2.57,2.7C971.852,1706.884,970.683,1707.866,968.979,1708.112Z" transform="translate(-951.893 -1688.193)"/>
</svg>
