<svg id="Grupo_268" data-name="Grupo 268" xmlns="http://www.w3.org/2000/svg" width="29.845" height="32.739" viewBox="0 0 29.845 32.739">
  <defs>
    <style>
      .cls-1 {
        fill: #ee3124;
      }
    </style>
  </defs>
  <path id="Trazado_66" data-name="Trazado 66" class="cls-1" d="M300.04,1312.086l4.247-2.867a1.358,1.358,0,0,0-1.52-2.251l-2.808,1.9v3.268C299.986,1312.117,300.014,1312.1,300.04,1312.086Z" transform="translate(-275.04 -1300.515)"/>
  <path id="Trazado_67" data-name="Trazado 67" class="cls-1" d="M302.917,1301.919a1.358,1.358,0,0,0-1.641-2.163l-1.317,1v3.407Z" transform="translate(-275.04 -1296.971)"/>
  <path id="Trazado_68" data-name="Trazado 68" class="cls-1" d="M302.729,1314.27l-2.771,2.011v3.256a1.341,1.341,0,0,0,.415-.2l3.95-2.867a1.358,1.358,0,1,0-1.6-2.2Z" transform="translate(-275.039 -1304.068)"/>
  <path id="Trazado_69" data-name="Trazado 69" class="cls-1" d="M300.082,1327.433l3.808-2.785a1.358,1.358,0,0,0-1.6-2.191l-2.327,1.7v3.35A1.344,1.344,0,0,0,300.082,1327.433Z" transform="translate(-275.04 -1308.065)"/>
  <path id="Trazado_70" data-name="Trazado 70" class="cls-1" d="M262.425,1321.7v-8.773a22.8,22.8,0,0,0-2.2,2.276l-.344-2.849c2.258-2.756,2.24-4.876,2.229-5.121a1.358,1.358,0,0,0-2.445-.755l-3.141,4.2a1.379,1.379,0,0,0-.21.415L255,1315.4l-.055.147a23.543,23.543,0,0,0-1.671,6.486l-1.686,2.054a1.339,1.339,0,0,0-.267.528c-.5,1.984,1.9,7.262,5.374,8.2a1.329,1.329,0,0,0,.355.048,1.35,1.35,0,0,0,.4-.06l3.9-1.2c5.083-.214,9.861-5.656,11.825-8.2h-9.208A1.624,1.624,0,0,1,262.425,1321.7Z" transform="translate(-251.254 -1300.125)"/>
  <path id="Trazado_71" data-name="Trazado 71" class="cls-1" d="M285.945,1294.575H275.273a.949.949,0,0,0-.859,1.018v20.562a.949.949,0,0,0,.859,1.018h10.672a.95.95,0,0,0,.86-1.018v-20.562A.949.949,0,0,0,285.945,1294.575Zm-5.873,1.245h1.754a.339.339,0,1,1,0,.679h-1.754a.339.339,0,0,1,0-.679Zm-3.939,16.942v-14.792h8.953v14.792h-8.953Zm4.76,3.4a1.206,1.206,0,1,1,1.209-1.209A1.209,1.209,0,0,1,280.893,1316.159Z" transform="translate(-262.565 -1294.575)"/>
</svg>
