<svg xmlns="http://www.w3.org/2000/svg" width="29.248" height="26.417" viewBox="0 0 29.248 26.417">
  <defs>
    <style>
      .cls-1 {
        fill: #ee3124;
        fill-rule: evenodd;
      }
    </style>
  </defs>
  <path id="Trazado_72" data-name="Trazado 72" class="cls-1" d="M1918.832,911.7h-8.963v2.359l1.887,1.887v.472h-12.265v-.472l1.887-1.887V911.7h-8.963a1.415,1.415,0,0,1-1.415-1.415V891.415a1.415,1.415,0,0,1,1.415-1.415h26.417a1.415,1.415,0,0,1,1.415,1.415v18.869a1.415,1.415,0,0,1-1.415,1.415m-.472-19.813h-25.474v16.039h25.474Zm-15.567,6.6a1.41,1.41,0,0,1,1,.415l.886.886,2.773-2.773a1.415,1.415,0,1,1,2,2l-3.774,3.774a1.414,1.414,0,0,1-2,0l-1.887-1.887a1.415,1.415,0,0,1,1-2.416" transform="translate(-1891 -890)"/>
</svg>
