<svg xmlns="http://www.w3.org/2000/svg" width="23.927" height="27.981" viewBox="0 0 23.927 27.981">
  <defs>
    <style>
      .cls-1 {
        fill: #ee3124;
      }
    </style>
  </defs>
  <g id="Grupo_272" data-name="Grupo 272" transform="translate(-912.185 -699.194)">
    <path id="Unión_2" data-name="Unión 2" class="cls-1" d="M2.182,13.992a.536.536,0,0,1-.523-.464l-.007-.082L1.37,9.757a.391.391,0,0,0,0-.048.36.36,0,0,0-.327-.315H.833a.534.534,0,0,1-.519-.446L.3,8.841,0,5.321a.833.833,0,0,1,.816-.847H4.94a.832.832,0,0,1,.816.847L5.449,8.868l0,.055v.007a.537.537,0,0,1-.523.465h-.2a.362.362,0,0,0-.328.321.348.348,0,0,0,0,.036L4.1,13.434,4.1,13.54a.534.534,0,0,1-.52.452ZM1.073,1.878A1.843,1.843,0,0,1,2.878,0,1.844,1.844,0,0,1,4.685,1.878,1.844,1.844,0,0,1,2.878,3.755,1.842,1.842,0,0,1,1.073,1.878Z" transform="translate(912.185 710.827)"/>
    <path id="Unión_3" data-name="Unión 3" class="cls-1" d="M2.182,13.991a.537.537,0,0,1-.523-.464l-.006-.082L1.37,9.756a.263.263,0,0,0-.005-.048.356.356,0,0,0-.326-.313H.834a.535.535,0,0,1-.52-.446L.305,8.841,0,5.32a.832.832,0,0,1,.816-.847H4.94a.832.832,0,0,1,.816.847L5.449,8.868l-.005.054v.006a.536.536,0,0,1-.523.465h-.2a.359.359,0,0,0-.327.321.308.308,0,0,0,0,.034L4.1,13.433l-.008.106a.534.534,0,0,1-.521.452ZM1.073,1.878A1.842,1.842,0,0,1,2.878,0,1.844,1.844,0,0,1,4.685,1.878,1.843,1.843,0,0,1,2.878,3.754,1.842,1.842,0,0,1,1.073,1.878Z" transform="translate(930.356 710.662)"/>
    <path id="Unión_4" data-name="Unión 4" class="cls-1" d="M4.363,27.981a1.073,1.073,0,0,1-1.045-.927l-.013-.165L2.74,19.512a.669.669,0,0,0-.009-.1.717.717,0,0,0-.653-.627h-.41a1.072,1.072,0,0,1-1.039-.894L.61,17.682,0,10.641a1.666,1.666,0,0,1,1.632-1.7H9.881a1.665,1.665,0,0,1,1.632,1.7L10.9,17.734l-.009.108a.116.116,0,0,0,0,.013,1.072,1.072,0,0,1-1.045.932h-.4a.719.719,0,0,0-.655.641.476.476,0,0,0-.006.071L8.21,26.866l-.016.213a1.069,1.069,0,0,1-1.04.9ZM2.145,3.755A3.686,3.686,0,0,1,5.756,0,3.687,3.687,0,0,1,9.369,3.755,3.686,3.686,0,0,1,5.756,7.509,3.685,3.685,0,0,1,2.145,3.755Z" transform="translate(918.352 699.194)"/>
  </g>
</svg>
