<svg xmlns="http://www.w3.org/2000/svg" width="22" height="22" viewBox="0 0 22 22">
  <defs>
    <style>
      .cls-1 {
        fill: #ee3124;
      }

      .cls-2 {
        fill: #fff;
      }
    </style>
  </defs>
  <g id="Grupo_275" data-name="Grupo 275" transform="translate(56.682 113.85) rotate(180)">
    <path id="Trazado_40" data-name="Trazado 40" class="cls-1" d="M45.683,91.85a11,11,0,1,0,11,11,11.011,11.011,0,0,0-11-11"/>
    <path id="Trazado_41" data-name="Trazado 41" class="cls-2" d="M65.819,118.175a.987.987,0,0,1,.737,1.155,1.277,1.277,0,0,1-1.264.87,1.648,1.648,0,0,1-.585-.111c-.084-.031-8.314-3.265-8.246-6.149-.068-2.872,8.162-6.105,8.246-6.138a1.675,1.675,0,0,1,.585-.11,1.277,1.277,0,0,1,1.264.87.987.987,0,0,1-.737,1.155c-2.46.928-6.854,3.128-6.854,4.217s4.462,3.337,6.854,4.24" transform="translate(-16.381 -11.097)"/>
  </g>
</svg>
