<svg xmlns="http://www.w3.org/2000/svg" width="32" height="32" viewBox="0 0 32 32">
  <defs>
    <style>
      .cls-1 {
        fill: #ee3124;
        fill-rule: evenodd;
      }
    </style>
  </defs>
  <path id="Trazado_144" data-name="Trazado 144" class="cls-1" d="M454.313,349.25a16,16,0,1,1,16-16,16,16,0,0,1-16,16m0-29a13,13,0,1,0,13,13,13,13,0,0,0-13-13m6.5,14.5h-5v5a1.5,1.5,0,0,1-3,0v-5h-5a1.5,1.5,0,0,1,0-3h5v-5a1.5,1.5,0,0,1,3,0v5h5a1.5,1.5,0,0,1,0,3" transform="translate(-438.313 -317.25)"/>
</svg>
