<?xml version="1.0" encoding="UTF-8"?>
<svg width="134px" height="14px" viewBox="0 0 134 14" version="1.1" xmlns="http://www.w3.org/2000/svg" xmlns:xlink="http://www.w3.org/1999/xlink">
    <!-- Generator: Sketch 53.2 (72643) - https://sketchapp.com -->
    <title>xxxhdpi/Logo Davivienda</title>
    <desc>Created with Sketch.</desc>
    <g id="Symbols" stroke="none" stroke-width="1" fill="none" fill-rule="evenodd">
        <g id="Logo-Davivienda" fill="#FFFFFE">
            <g transform="translate(0.500000, 0.500000)">
                <path d="M25.5872904,11.2935935 C27.6747394,11.7350345 32.8229734,11.5987165 32.9420924,8.2277125 C32.9420924,6.8728135 31.1992604,5.6096425 29.5411494,5.2446415 C27.5027494,4.8006525 26.1981734,4.7923715 24.1342934,5.2446415 C22.8692114,5.7332205 22.4666274,4.4815155 23.6246934,4.0668285 C25.8210694,3.2661195 34.3747054,3.0903075 34.7785634,8.2277125 C34.4250284,13.2950475 26.9574774,12.9306835 25.2738864,12.5943475 C24.6075844,12.4631255 24.1005324,12.1548175 24.1005324,11.3088815 L24.1005324,7.0881195 C24.1005324,6.0854815 25.5904754,6.0937625 25.5904754,7.0964005 L25.5872904,11.2935935 Z" id="Fill-1"></path>
                <path d="M41.6559976,5.3413381 C39.9883316,5.3413381 37.1823466,10.4156801 36.3625276,12.2400481 C35.8701266,13.3325031 34.3075656,12.5521781 34.8018776,11.4609971 C35.6853966,9.5003111 39.0220026,3.5921361 41.6375246,3.6443701 C44.2498616,3.5921361 47.5883786,9.5003111 48.4725346,11.4609971 C48.9662096,12.5521781 47.4074706,13.3325031 46.9163436,12.2400481 C46.0952506,10.4156801 43.3134716,5.3413381 41.6559976,5.3413381" id="Fill-3"></path>
                <path d="M53.3001665,11.0672037 C54.9608255,11.0672037 57.7680845,5.9864917 58.5891775,4.1716787 C59.0828525,3.0779497 60.6403175,3.8544527 60.1472795,4.9462707 C59.2637605,6.9082307 55.9271545,12.8183167 53.3141805,12.7679937 C50.7024805,12.8183167 47.3639635,6.9082307 46.4747115,4.9462707 C45.9842215,3.8544527 47.5435975,3.0779497 48.0347245,4.1716787 C48.8609135,5.9864917 51.6344115,11.0672037 53.3001665,11.0672037" id="Fill-5"></path>
                <path d="M62.9528823,4.5186526 L62.9528823,11.9167706 C62.9528823,13.0245136 61.2826683,12.9799236 61.2826683,11.8747286 L61.2826683,4.5001796 C61.2826683,3.3523056 62.9528823,3.3510316 62.9528823,4.5186526" id="Fill-7"></path>
                <path d="M70.9479967,11.0672037 C72.6086557,11.0672037 75.4146407,5.9864917 76.2395557,4.1716787 C76.7300457,3.0779497 78.2894217,3.8544527 77.7976577,4.9462707 C76.9115907,6.9082307 73.5711627,12.8183167 70.9575517,12.7679937 C68.3477627,12.8183167 65.0079717,6.9082307 64.1276377,4.9462707 C63.6339627,3.8544527 65.1882427,3.0779497 65.6831917,4.1716787 C66.5087437,5.9864917 69.2835157,11.0672037 70.9479967,11.0672037" id="Fill-9"></path>
                <path d="M83.7918914,8.9677154 C84.2823814,10.0009294 85.6799594,10.8417694 87.0323104,11.1360634 C89.0656144,11.5838744 90.3733754,11.5921554 92.4366184,11.1360634 C93.6692134,10.7347534 94.1049214,11.9329504 92.9379374,12.3247054 C90.6447374,13.0967494 82.2484404,13.3706594 81.7547654,8.2275214 C82.0261274,3.3245324 88.7375594,3.4519324 91.2970254,3.7901794 C92.5480934,3.9513404 92.2952044,5.2724784 90.9899914,5.0043014 C89.2681804,4.7724334 84.6110734,4.5023454 83.7014374,7.5905214 L88.4821224,7.5924324 C89.2255014,7.5924324 89.2255014,8.9702634 88.4821224,8.9702634 L83.7918914,8.9677154 Z" id="Fill-11"></path>
                <path d="M110.407153,11.2935935 C112.49078,11.7350345 117.638377,11.5987165 117.759407,8.2277125 C117.759407,6.8728135 116.018486,5.6096425 114.359738,5.2446415 C112.318153,4.8006525 111.015488,4.7923715 108.948423,5.2446415 C107.679519,5.7332205 107.28012,4.4815155 108.440097,4.0668285 C110.640932,3.2661195 119.188198,3.0903075 119.59333,8.2277125 C119.237884,13.2950475 111.770333,12.9306835 110.093112,12.5943475 C109.422351,12.4631255 108.919758,12.1548175 108.919758,11.3088815 L108.919758,7.0881195 C108.919758,6.0854815 110.407153,6.0937625 110.407153,7.0964005 L110.407153,11.2935935 Z" id="Fill-13"></path>
                <path d="M126.475287,5.3413381 C124.808258,5.3413381 122.00291,10.4156801 121.181817,12.2400481 C120.69069,13.3325031 119.130677,12.5521781 119.623715,11.4609971 C120.509145,9.5003111 123.848936,3.5921361 126.460636,3.6443701 C129.070425,3.5921361 132.408305,9.5003111 133.295009,11.4609971 C133.783588,12.5521781 132.229308,13.3325031 131.738181,12.2400481 C130.913903,10.4156801 128.13722,5.3413381 126.475287,5.3413381" id="Fill-15"></path>
                <path d="M80.5956802,4.5186526 L80.5956802,11.9167706 C80.5956802,13.0245136 78.9248292,12.9799236 78.9248292,11.8747286 L78.9248292,4.5001796 C78.9248292,3.3523056 80.5956802,3.3510316 80.5956802,4.5186526" id="Fill-17"></path>
                <path d="M100.699782,9.714152 C99.6627464,7.821625 98.5263384,5.313119 97.7434654,5.258974 C95.8133554,5.252604 96.6866824,9.058679 96.6535584,12.023277 C96.6389074,13.071142 94.9839814,13.06732 94.9839814,11.906706 C94.9788854,8.122926 94.1737174,3.610418 97.7823224,3.610418 C98.8403794,3.610418 99.8455654,5.192089 100.74055,6.686491 C101.774401,8.580929 103.006359,11.091983 103.789232,11.145491 C105.716157,11.154409 104.796329,7.424774 104.834549,4.459539 C104.847926,3.411037 106.507948,3.412948 106.507948,4.568466 C106.507948,8.354794 107.360891,12.791499 103.751012,12.791499 C102.687222,12.791499 101.596041,11.204732 100.699782,9.714152" id="Fill-19"></path>
                <path d="M4.5746988,7.3683358 C4.6154668,7.5677168 4.7963748,8.2983558 5.4308268,8.3302058 L5.4308268,7.7155008 C5.4238198,7.5403258 5.2849538,7.3727948 5.0753808,7.3683358 L4.5746988,7.3683358 Z M3.6077328,7.1320088 L5.2193428,7.1320088 C5.4741428,7.1320088 5.6818048,7.3377598 5.6818048,7.5938338 L5.6818048,8.6799188 C5.6818048,8.9353558 5.4741428,9.1411068 5.2193428,9.1411068 L3.6077328,9.1411068 C3.3522958,9.1411068 3.1465448,8.9353558 3.1465448,8.6799188 L3.1465448,7.5938338 C3.1465448,7.3377598 3.3522958,7.1320088 3.6077328,7.1320088 L3.6077328,7.1320088 Z M4.2511028,7.3683358 C4.2135198,7.5677168 4.0294268,8.2983558 3.3956118,8.3302058 L3.3956118,7.7155008 C3.3956118,7.5581618 3.5370258,7.3683358 3.7497838,7.3683358 L4.2511028,7.3683358 Z" id="Fill-21"></path>
                <path d="M8.9810826,9.9599066 C8.9810826,9.8274106 9.0849136,9.7203946 9.2135876,9.7203946 C9.3409876,9.7203946 9.4460926,9.8274106 9.4460926,9.9599066 C9.4460926,10.0911286 9.3409876,10.1981446 9.2135876,10.1981446 C9.0849136,10.1981446 8.9810826,10.0911286 8.9810826,9.9599066" id="Fill-23"></path>
                <path d="M8.0178112,0.0751954 C8.6713732,0.0790174 9.9033312,0.5631374 11.3015462,1.3555654 C11.2894432,1.3033314 11.2709702,1.2491864 11.2569562,1.1963154 C11.1684132,0.8771784 11.2327502,0.5210954 11.7869402,0.5210954 L13.0029732,0.5210954 C13.7520852,0.5210954 13.6527132,0.9224054 13.5112992,1.4810544 C13.4265782,1.8173904 13.3545972,2.2473654 13.3259322,2.6512234 C13.3259322,2.6512234 14.3100972,3.3748554 14.8515472,3.8328584 C16.5739952,5.2845814 15.4528752,6.2330744 13.8126002,6.1502644 C13.6469802,6.1419834 13.4858192,6.1337024 13.3272062,6.1260584 C13.3399462,6.6095414 13.4839082,7.5000674 14.2374792,8.5141714 C16.1421092,10.7914464 13.6202262,13.6496654 10.0562112,12.8470454 C9.4688972,13.0426044 8.5305962,13.1330584 8.0178112,13.1330584 C7.5043892,13.1330584 6.5667252,13.0426044 5.9806852,12.8470454 C2.4147592,13.6496654 -0.1077608,10.7914464 1.7981432,8.5141714 C2.5536252,7.5000674 2.6969502,6.6095414 2.7090532,6.1260584 C2.5498032,6.1337024 2.3873682,6.1419834 2.2230222,6.1502644 C0.5814732,6.2330744 -0.5396468,5.2680194 1.1840752,3.8182074 C1.7293472,3.3602044 2.7109642,2.6512234 2.7109642,2.6512234 C3.2931822,2.2027754 4.4952012,1.4906094 4.7328022,1.3555654 C6.1310172,0.5631374 7.3642492,0.0790174 8.0178112,0.0751954 M8.0178112,5.8757174 C6.5285052,5.8980124 5.2022712,6.0031174 3.0409302,6.1158664 C3.0097172,6.6362954 2.9753192,7.6542214 2.1625072,8.8632474 C1.1082722,10.5264544 2.4032932,13.1050304 5.6386162,12.5578474 C5.6386162,12.5578474 5.6137732,12.5457444 5.5500732,12.5119834 C4.5028452,12.0087534 4.3085602,11.3341704 5.0092602,11.0494314 C5.5430662,10.8315774 6.2214712,10.6099014 6.2214712,10.6099014 C5.8679362,8.8810834 6.4284962,6.5299164 8.0178112,6.5190874 C9.6064892,6.5299164 10.1676862,8.8810834 9.8128772,10.6099014 C9.8128772,10.6099014 10.4925562,10.8315774 11.0250882,11.0494314 C11.7276992,11.3341704 11.5327772,12.0087534 10.4849122,12.5119834 C10.4218492,12.5457444 10.3970062,12.5578474 10.3970062,12.5578474 C13.6310552,13.1050304 14.9260762,10.5264544 13.8731152,8.8632474 C13.0583922,7.6542214 13.0259052,6.6362954 12.9940552,6.1158664 C10.8333512,6.0031174 9.5064802,5.8980124 8.0178112,5.8757174 M11.6697322,1.5211854 C11.4971052,1.0243254 11.4875502,0.8638014 11.9379092,0.8714454 L12.8927722,0.8714454 C13.4552432,0.8714454 13.2170052,1.2122404 13.1074412,1.7689784 C13.0373712,2.1301574 13.0526592,2.2352624 13.0125282,2.4754114 C12.4634342,2.0900264 12.2009902,1.8294934 11.6697322,1.5211854 M8.0209962,0.4981634 C9.6351542,0.4981634 13.4985592,2.9754564 14.6922972,4.2819434 C15.5019242,5.1699214 14.9942352,5.8152024 13.7081322,5.7330294 C11.6346972,5.5992594 9.8733922,5.4686744 8.0178112,5.4419204 C6.1622302,5.4686744 4.4002882,5.5992594 2.3274902,5.7330294 C1.0420242,5.8152024 0.5324242,5.1699214 1.3433252,4.2819434 C2.5370632,2.9754564 6.4049272,0.4981634 8.0209962,0.4981634 M8.0178112,6.9305894 C9.3803542,6.9305894 10.1281922,9.2626464 9.2784342,11.7373914 C9.2784342,11.7373914 8.7573682,11.6367454 8.0178112,11.6367454 C7.2776172,11.6367454 6.7571882,11.7373914 6.7571882,11.7373914 C5.9067932,9.2626464 6.6552682,6.9305894 8.0178112,6.9305894 M8.0178112,12.9534244 C9.2835302,12.9534244 10.2320232,12.6992614 10.2320232,12.3603774 C10.2320232,12.0285004 9.4338622,11.7711524 8.0178112,11.7711524 C6.6004862,11.7711524 5.8016882,12.0285004 5.8016882,12.3603774 C5.8016882,12.6992614 6.7514552,12.9534244 8.0178112,12.9534244" id="Fill-25"></path>
                <path d="M11.7875772,7.3683358 C11.8270712,7.5677168 12.0098902,8.2983558 12.6430682,8.3302058 L12.6430682,7.7155008 C12.6360612,7.5403258 12.4978322,7.3727948 12.2882592,7.3683358 L11.7875772,7.3683358 Z M10.8206112,7.1320088 L12.4322212,7.1320088 C12.6863842,7.1320088 12.8927722,7.3377598 12.8927722,7.5938338 L12.8927722,8.6799188 C12.8927722,8.9353558 12.6863842,9.1411068 12.4322212,9.1411068 L10.8206112,9.1411068 C10.5632632,9.1411068 10.3575122,8.9353558 10.3575122,8.6799188 L10.3575122,7.5938338 C10.3575122,7.3377598 10.5632632,7.1320088 10.8206112,7.1320088 L10.8206112,7.1320088 Z M11.4639812,7.3683358 C11.4225762,7.5677168 11.2423052,8.2983558 10.6084902,8.3302058 L10.6084902,7.7155008 C10.6084902,7.5581618 10.7511782,7.3683358 10.9639362,7.3683358 L11.4639812,7.3683358 Z" id="Fill-27"></path>
            </g>
        </g>
    </g>
</svg>