<?xml version="1.0" encoding="UTF-8"?>
<svg width="170px" height="80px" viewBox="0 0 170 80" version="1.1" xmlns="http://www.w3.org/2000/svg" xmlns:xlink="http://www.w3.org/1999/xlink">
    <!-- Generator: Sketch 53.2 (72643) - https://sketchapp.com -->
    <title>xxxhdpi/Group 7</title>
    <desc>Created with Sketch.</desc>
    <g id="No-cliente-Exportación" stroke="none" stroke-width="1" fill="none" fill-rule="evenodd">
        <g id="13.0_Cupo-aprobado" transform="translate(-856.000000, 0.000000)">
            <g id="Group-7" transform="translate(855.454315, 0.839116)">
                <g id="Confetti">
                    <g id="Rectangle-2">
                        <polygon fill="#4FDFB4" transform="translate(166.247061, 8.442485) rotate(-154.000000) translate(-166.247061, -8.442485) " points="164.110887 6.7761955 168.383234 6.7761955 168.383234 10.1087735 164.110887 10.1087735"></polygon>
                        <polygon fill="#E0C148" transform="translate(158.577968, 22.392802) rotate(-240.000000) translate(-158.577968, -22.392802) " points="156.289211 20.5750325 160.866725 20.5750325 160.866725 24.2105722 156.289211 24.2105722"></polygon>
                        <polygon fill="#6641E6" transform="translate(140.707049, 2.535357) rotate(-176.000000) translate(-140.707049, -2.535357) " points="138.113124 0.414625084 143.300973 0.414625084 143.300973 4.65608802 138.113124 4.65608802"></polygon>
                        <polygon fill="#E0537E" transform="translate(131.571030, 13.262691) rotate(-40.000000) translate(-131.571030, -13.262691) " points="128.36677 10.536036 134.77529 10.536036 134.77529 15.9893455 128.36677 15.9893455"></polygon>
                        <polygon fill="#4FDFB4" transform="translate(111.477679, 18.763289) rotate(-185.000000) translate(-111.477679, -18.763289) " points="108.883754 16.6425578 114.071604 16.6425578 114.071604 20.8840208 108.883754 20.8840208"></polygon>
                        <polygon fill="#E0537E" transform="translate(118.480032, 2.861232) rotate(-319.000000) translate(-118.480032, -2.861232) " points="116.343858 1.04346231 120.616205 1.04346231 120.616205 4.67900197 116.343858 4.67900197"></polygon>
                        <polygon fill="#6641E6" transform="translate(78.209799, 36.450513) rotate(-354.000000) translate(-78.209799, -36.450513) " points="75.6158741 34.3297815 80.8037232 34.3297815 80.8037232 38.5712444 75.6158741 38.5712444"></polygon>
                        <polygon fill="#E0C148" transform="translate(70.582223, 20.548273) rotate(-260.000000) translate(-70.582223, -20.548273) " points="67.9882983 18.427542 73.1761474 18.427542 73.1761474 22.6690049 67.9882983 22.6690049"></polygon>
                        <polygon fill="#4FDFB4" transform="translate(97.154675, 8.177393) rotate(-154.000000) translate(-97.154675, -8.177393) " points="95.0185019 6.51110407 99.2908483 6.51110407 99.2908483 9.84368209 95.0185019 9.84368209"></polygon>
                        <polygon fill="#E0C148" transform="translate(94.800381, 29.209439) rotate(-240.000000) translate(-94.800381, -29.209439) " points="92.5116243 27.3916694 97.0891383 27.3916694 97.0891383 31.0272091 92.5116243 31.0272091"></polygon>
                        <polygon fill="#6641E6" transform="translate(76.929462, 7.344873) rotate(-176.000000) translate(-76.929462, -7.344873) " points="74.3355376 5.2241411 79.5233867 5.2241411 79.5233867 9.46560404 74.3355376 9.46560404"></polygon>
                        <polygon fill="#E0537E" transform="translate(53.613806, 38.967092) rotate(-40.000000) translate(-53.613806, -38.967092) " points="50.4095464 36.2404375 56.8180659 36.2404375 56.8180659 41.693747 50.4095464 41.693747"></polygon>
                        <polygon fill="#4FDFB4" transform="translate(31.878819, 33.333851) rotate(-185.000000) translate(-31.878819, -33.333851) " points="29.2848941 31.2131191 34.4727432 31.2131191 34.4727432 35.4545821 29.2848941 35.4545821"></polygon>
                        <polygon fill="#E0537E" transform="translate(49.387646, 9.204491) rotate(-319.000000) translate(-49.387646, -9.204491) " points="47.251473 7.38672162 51.5238193 7.38672162 51.5238193 11.0222613 47.251473 11.0222613"></polygon>
                        <polygon fill="#6641E6" transform="translate(3.418589, 46.826949) rotate(-354.000000) translate(-3.418589, -46.826949) " points="0.824664021 44.7062176 6.01251318 44.7062176 6.01251318 48.9476805 0.824664021 48.9476805"></polygon>
                        <polygon fill="#E0C148" transform="translate(7.821865, 11.932802) rotate(-260.000000) translate(-7.821865, -11.932802) " points="5.22794022 9.8120704 10.4157894 9.8120704 10.4157894 14.0535333 5.22794022 14.0535333"></polygon>
                    </g>
                </g>
                <g id="Confetti" transform="translate(115.058938, 54.163876) scale(-1, -1) translate(-115.058938, -54.163876) translate(30.558938, 29.163876)">
                    <g id="Rectangle-2">
                        <polygon fill="#4FDFB4" transform="translate(166.247061, 8.442485) rotate(-154.000000) translate(-166.247061, -8.442485) " points="164.110887 6.7761955 168.383234 6.7761955 168.383234 10.1087735 164.110887 10.1087735"></polygon>
                        <polygon fill="#E0C148" transform="translate(158.577968, 22.392802) rotate(-240.000000) translate(-158.577968, -22.392802) " points="156.289211 20.5750325 160.866725 20.5750325 160.866725 24.2105722 156.289211 24.2105722"></polygon>
                        <polygon fill="#6641E6" transform="translate(140.707049, 2.535357) rotate(-176.000000) translate(-140.707049, -2.535357) " points="138.113124 0.414625084 143.300973 0.414625084 143.300973 4.65608802 138.113124 4.65608802"></polygon>
                        <polygon fill="#E0537E" transform="translate(131.571030, 13.262691) rotate(-40.000000) translate(-131.571030, -13.262691) " points="128.36677 10.536036 134.77529 10.536036 134.77529 15.9893455 128.36677 15.9893455"></polygon>
                        <polygon fill="#4FDFB4" transform="translate(111.477679, 18.763289) rotate(-185.000000) translate(-111.477679, -18.763289) " points="108.883754 16.6425578 114.071604 16.6425578 114.071604 20.8840208 108.883754 20.8840208"></polygon>
                        <polygon fill="#E0537E" transform="translate(118.480032, 2.861232) rotate(-319.000000) translate(-118.480032, -2.861232) " points="116.343858 1.04346231 120.616205 1.04346231 120.616205 4.67900197 116.343858 4.67900197"></polygon>
                        <polygon fill="#6641E6" transform="translate(78.209799, 36.450513) rotate(-354.000000) translate(-78.209799, -36.450513) " points="75.6158741 34.3297815 80.8037232 34.3297815 80.8037232 38.5712444 75.6158741 38.5712444"></polygon>
                        <polygon fill="#E0C148" transform="translate(70.582223, 20.548273) rotate(-260.000000) translate(-70.582223, -20.548273) " points="67.9882983 18.427542 73.1761474 18.427542 73.1761474 22.6690049 67.9882983 22.6690049"></polygon>
                        <polygon fill="#4FDFB4" transform="translate(97.154675, 8.177393) rotate(-154.000000) translate(-97.154675, -8.177393) " points="95.0185019 6.51110407 99.2908483 6.51110407 99.2908483 9.84368209 95.0185019 9.84368209"></polygon>
                        <polygon fill="#E0C148" transform="translate(94.800381, 29.209439) rotate(-240.000000) translate(-94.800381, -29.209439) " points="92.5116243 27.3916694 97.0891383 27.3916694 97.0891383 31.0272091 92.5116243 31.0272091"></polygon>
                        <polygon fill="#6641E6" transform="translate(76.929462, 7.344873) rotate(-176.000000) translate(-76.929462, -7.344873) " points="74.3355376 5.2241411 79.5233867 5.2241411 79.5233867 9.46560404 74.3355376 9.46560404"></polygon>
                        <polygon fill="#E0537E" transform="translate(53.613806, 38.967092) rotate(-40.000000) translate(-53.613806, -38.967092) " points="50.4095464 36.2404375 56.8180659 36.2404375 56.8180659 41.693747 50.4095464 41.693747"></polygon>
                        <polygon fill="#4FDFB4" transform="translate(31.878819, 33.333851) rotate(-185.000000) translate(-31.878819, -33.333851) " points="29.2848941 31.2131191 34.4727432 31.2131191 34.4727432 35.4545821 29.2848941 35.4545821"></polygon>
                        <polygon fill="#E0537E" transform="translate(49.387646, 9.204491) rotate(-319.000000) translate(-49.387646, -9.204491) " points="47.251473 7.38672162 51.5238193 7.38672162 51.5238193 11.0222613 47.251473 11.0222613"></polygon>
                    </g>
                </g>
            </g>
        </g>
    </g>
</svg>