<svg xmlns="http://www.w3.org/2000/svg" width="32.49" height="35.049" viewBox="0 0 32.49 35.049">
  <g id="Grupo_269" data-name="Grupo 269" transform="translate(-1181.666 -307.727)">
    <path id="Trazado_64" data-name="Trazado 64" d="M1196.5,307.727h2.9c.95.189,1.054.534.929,2.683a16.375,16.375,0,0,1,3.469.966c.509-.5.078-.615.965-.677a2.02,2.02,0,0,1,1.054.441c.356.209.676.361.966.526.626.36,1.515.716,1.582,1.36.072.708-.085.165-.307.721.784.8,1.651,1.5,2.37,2.37a16.011,16.011,0,0,1,1.844,2.854,15.765,15.765,0,0,1,1.888,7.552,16.239,16.239,0,0,1-27.4,11.811,16.121,16.121,0,0,1-5.093-10.888V325.6a16.325,16.325,0,0,1,6.1-11.811c-.026,0-.051-.006-.043-.043-.17-.563-.307-.176-.264-.844.042-.646.969-1.05,1.582-1.4.3-.174.6-.316.966-.526a2.1,2.1,0,0,1,1.1-.441c.888.076.366.369.922.843a12.466,12.466,0,0,1,3.424-.922C1195.331,308.275,1195.524,307.924,1196.5,307.727Zm-4.56,6.546a13.225,13.225,0,0,0-3.952,2.854,13.564,13.564,0,0,0-3.687,9.924,13.178,13.178,0,0,0,4.258,9.353,12.98,12.98,0,0,0,9.88,3.731,13.156,13.156,0,0,0,9.352-4.258,13.352,13.352,0,0,0,3.731-9.88,14.02,14.02,0,0,0-1.359-5.443,14.59,14.59,0,0,0-2.9-3.909,13.211,13.211,0,0,0-9.879-3.731A13.422,13.422,0,0,0,1191.94,314.273Z" fill="#ee3124"/>
    <path id="Trazado_65" data-name="Trazado 65" d="M1203.759,327.012a1.574,1.574,0,0,0-.395.218,9.8,9.8,0,0,1-.747-1.316c.1-.095.26-.121.351-.22A8.087,8.087,0,0,1,1203.759,327.012Z" transform="translate(-10.502 -9.006)" fill="#ee3124"/>
    <path id="Trazado_66" data-name="Trazado 66" d="M1224.273,325.694c.19.031.27.17.439.22-.231.455-.5.871-.747,1.316-.141-.063-.245-.163-.394-.218C1223.753,326.521,1224.064,326.159,1224.273,325.694Z" transform="translate(-21.005 -9.006)" fill="#ee3124"/>
    <path id="Trazado_67" data-name="Trazado 67" d="M1232.106,333.706a.989.989,0,0,1,.263.438c-.4.259-.864.453-1.23.747a.657.657,0,0,1-.262-.439C1231.271,334.187,1231.746,334,1232.106,333.706Z" transform="translate(-24.668 -13.022)" fill="#ee3124"/>
    <path id="Trazado_68" data-name="Trazado 68" d="M1196.057,334.5c-.052.169-.161.279-.22.439-.448-.24-.865-.51-1.316-.747.054-.148.155-.253.219-.394A13.073,13.073,0,0,1,1196.057,334.5Z" transform="translate(-6.444 -13.067)" fill="#ee3124"/>
    <path id="Trazado_69" data-name="Trazado 69" d="M1191.789,345.054h1.493v.484h-1.493Z" transform="translate(-5.074 -18.71)" fill="#ee3124"/>
    <path id="Trazado_70" data-name="Trazado 70" d="M1233.694,345.054h1.494v.484h-1.494Z" transform="translate(-26.079 -18.71)" fill="#ee3124"/>
    <path id="Trazado_71" data-name="Trazado 71" d="M1196.057,355.184c-.487.185-.842.5-1.318.7a1.536,1.536,0,0,0-.219-.4c.387-.268.85-.465,1.228-.747C1195.94,354.8,1195.989,355,1196.057,355.184Z" transform="translate(-6.444 -23.567)" fill="#ee3124"/>
    <path id="Trazado_72" data-name="Trazado 72" d="M1231.052,354.743c.49.184.851.5,1.317.7a1.34,1.34,0,0,1-.219.439c-.445-.214-.819-.5-1.273-.7C1230.865,354.966,1231.024,354.922,1231.052,354.743Z" transform="translate(-24.667 -23.567)" fill="#ee3124"/>
    <path id="Trazado_73" data-name="Trazado 73" d="M1203.321,362.054a1.307,1.307,0,0,1,.438.219c-.22.437-.5.811-.7,1.272a.705.705,0,0,1-.439-.219C1202.825,362.876,1203.1,362.491,1203.321,362.054Z" transform="translate(-10.502 -27.231)" fill="#ee3124"/>
    <path id="Trazado_74" data-name="Trazado 74" d="M1224.711,363.37c-.2.008-.229.181-.439.175-.226-.417-.473-.813-.7-1.228a.565.565,0,0,1,.439-.263C1224.192,362.544,1224.521,362.888,1224.711,363.37Z" transform="translate(-21.004 -27.231)" fill="#ee3124"/>
    <path id="Trazado_75" data-name="Trazado 75" d="M1213.827,364.87h.483v1.493h-.483Z" transform="translate(-16.121 -28.643)" fill="#ee3124"/>
    <path id="Trazado_76" data-name="Trazado 76" d="M1213.711,322.913h.483v1.493h-.483Z" transform="translate(-16.063 -7.612)" fill="#ee3124"/>
    <g id="Grupo_268" data-name="Grupo 268" transform="translate(1196.454 314.562)">
      <path id="Trazado_77" data-name="Trazado 77" d="M1211.316,334.064a1.568,1.568,0,1,0,2.4-1.318h0c-.017-.01-.033-.024-.051-.034l.051-.125h0l3.683-9.028a.369.369,0,1,0-.684-.279l-3.764,9.224c-.023,0-.044-.007-.068-.007a1.558,1.558,0,0,0-.3.03,1.6,1.6,0,0,0-.181.052c-.028.009-.057.016-.085.026a1.57,1.57,0,0,0-.224.111l-.014.007a1.6,1.6,0,0,0-.216.158h0A1.555,1.555,0,0,0,1211.316,334.064Z" transform="translate(-1211.316 -322.242)" fill="#ee3124"/>
      <path id="Trazado_78" data-name="Trazado 78" d="M1213.257,331.325l1.013-2.483v-6.487a.923.923,0,1,0-1.847,0v9.26A1.909,1.909,0,0,1,1213.257,331.325Z" transform="translate(-1211.871 -321.431)" fill="#ee3124"/>
    </g>
  </g>
</svg>
