<svg xmlns="http://www.w3.org/2000/svg" width="22.311" height="30.988" viewBox="0 0 22.311 30.988">
  <path id="Trazado_80" data-name="Trazado 80" d="M620.882,1720.06a11.155,11.155,0,1,0-12.8,11.022v3.2l-1.841-1.841a1.642,1.642,0,0,0-2.322,2.322l4.644,4.645a1.643,1.643,0,0,0,2.322,0l4.644-4.645a1.642,1.642,0,0,0-2.322-2.322l-1.841,1.841v-3.2A11.149,11.149,0,0,0,620.882,1720.06ZM605.4,1722.2c0-.372.1-.454.469-.454h1.568c.372,0,.549.049.582.454a1.12,1.12,0,0,0,.308.662,2.121,2.121,0,0,0,1.585.533c.874,0,1.584-.193,1.584-1.1s-1.438-.921-2.813-1.359c-1.632-.517-3.137-1.164-3.137-3.217,0-1.812,1.407-2.813,3.089-3.121v-1.245c0-.291.1-.469.469-.469h1.262c.372,0,.469.178.469.469v1.294c1.569.323,2.943,1.26,2.943,2.926,0,.389-.1.453-.469.453h-1.584c-.308,0-.356-.227-.437-.436a1.1,1.1,0,0,0-.339-.485,2.148,2.148,0,0,0-1.374-.437c-.534,0-1.423.21-1.423.938,0,.987,2.377,1.342,3.023,1.6,1.165.356,2.879.824,2.879,3.023,0,1.941-1.309,3.041-3.217,3.316v1.229c0,.291-.1.469-.469.469H609.1c-.371,0-.469-.178-.469-.469v-1.261C606.953,1725.153,605.4,1724.039,605.4,1722.2Z" transform="translate(-598.571 -1708.903)" fill="#ee3124" fill-rule="evenodd"/>
</svg>
