<svg xmlns="http://www.w3.org/2000/svg" width="32.629" height="32.633" viewBox="0 0 32.629 32.633">
  <defs>
    <style>
      .cls-1 {
        fill: #ee3124;
        fill-rule: evenodd;
      }
    </style>
  </defs>
  <path id="Trazado_90" data-name="Trazado 90" class="cls-1" d="M263.422,1520.821a16.317,16.317,0,1,0,16.314,16.317A16.317,16.317,0,0,0,263.422,1520.821Zm1.62,24.333v1.8c0,.426-.141.686-.685.686h-1.846c-.543,0-.686-.26-.686-.686v-1.844c-2.459-.521-4.729-2.152-4.729-4.848,0-.544.141-.663.685-.663h2.294c.544,0,.8.071.85.663a1.633,1.633,0,0,0,.449.97,3.108,3.108,0,0,0,2.318.78c1.277,0,2.317-.283,2.317-1.608s-2.105-1.348-4.115-1.986c-2.388-.757-4.587-1.7-4.587-4.706,0-2.649,2.057-4.115,4.517-4.564v-1.821c0-.426.141-.686.684-.686h1.846c.543,0,.685.26.685.686v1.892c2.294.473,4.3,1.844,4.3,4.28,0,.568-.142.662-.685.662h-2.318c-.45,0-.521-.331-.639-.638a1.628,1.628,0,0,0-.5-.709,3.142,3.142,0,0,0-2.01-.639c-.78,0-2.08.306-2.08,1.371,0,1.443,3.476,1.963,4.421,2.341,1.7.521,4.21,1.207,4.21,4.422C269.748,1543.144,267.832,1544.751,265.041,1545.155Z" transform="translate(-247.107 -1520.821)"/>
</svg>
