<svg xmlns="http://www.w3.org/2000/svg" width="23.826" height="28.602" viewBox="0 0 23.826 28.602">
  <defs>
    <style>
      .cls-1 {
        fill: #ee3124;
      }
    </style>
  </defs>
  <g id="Grupo_273" data-name="Grupo 273" transform="translate(-641.561 -2137.423)">
    <path id="Trazado_88" data-name="Trazado 88" class="cls-1" d="M670.325,2138.582c-1.452-.88-3.5,1.793-4.775,1.744s-2.819-2.954-4.276-2.9-1.323,4.027-2.493,4.294-3.039-3.3-4.208-2.025c-.947,1.033.734,3.746,1.868,5.277h10.45C668.079,2143.348,671.515,2139.3,670.325,2138.582Z" transform="translate(-8.37 0)"/>
    <path id="Trazado_89" data-name="Trazado 89" class="cls-1" d="M663.705,2169.286c-1.547-2.554-3.77-3.849-4.985-6.646H648.2a6.115,6.115,0,0,1-1.543,2.542,14.284,14.284,0,0,0-4.987,9.1c-1.286,8.873,9.589,8.682,15.717,8.08,3.165-.312,6.255-1.049,7.421-4.232A9.987,9.987,0,0,0,663.705,2169.286Zm-9.179,8.731v1.167c0,.276-.092.445-.445.445h-1.2c-.353,0-.445-.169-.445-.445v-1.2c-1.6-.338-3.071-1.4-3.071-3.148,0-.353.092-.431.445-.431H651.3c.353,0,.522.047.553.431a1.06,1.06,0,0,0,.292.63,2.019,2.019,0,0,0,1.505.506c.829,0,1.5-.184,1.5-1.044s-1.367-.875-2.672-1.291c-1.55-.49-2.979-1.1-2.979-3.055,0-1.72,1.336-2.672,2.933-2.963v-1.183c0-.277.092-.445.444-.445h1.2c.353,0,.445.168.445.445v1.229c1.49.307,2.795,1.2,2.795,2.779,0,.369-.092.43-.445.43h-1.5c-.292,0-.339-.215-.415-.415a1.053,1.053,0,0,0-.322-.461,2.04,2.04,0,0,0-1.306-.415c-.507,0-1.351.2-1.351.891,0,.937,2.257,1.274,2.871,1.52,1.106.339,2.734.783,2.734,2.872C657.582,2176.71,656.338,2177.755,654.526,2178.017Z" transform="translate(0 -16.577)"/>
  </g>
</svg>
