<svg xmlns="http://www.w3.org/2000/svg" width="37.298" height="29.036" viewBox="0 0 37.298 29.036">
  <defs>
    <style>
      .cls-1 {
        fill: #ee3124;
      }
    </style>
  </defs>
  <path id="Trazado_76" data-name="Trazado 76" class="cls-1" d="M-283.715,1875.4h-1.134a12.743,12.743,0,0,0-4.168-5.907.913.913,0,0,0-.035-.227,3.322,3.322,0,0,1,.274-3.123.922.922,0,0,0-.9-1.406c-2.61.325-3.591,1.038-4.314,2.11a16.575,16.575,0,0,0-5-.764c-6.169,0-11.451,3.324-13.635,8.036a9,9,0,0,0-.557,1.459,4.039,4.039,0,0,0-1.839-.407,5.258,5.258,0,0,0-.925.082c-.051-.052-.1-.1-.159-.157a7.367,7.367,0,0,0-1.6-1.173,2.634,2.634,0,0,0-1.171-.346.593.593,0,0,0-.592.594.594.594,0,0,0,.592.594,1.386,1.386,0,0,1,.518.161,5.007,5.007,0,0,1,.784.484c.12.088.237.184.35.28l0,.009a2.736,2.736,0,0,0-1.449,1.731,2.074,2.074,0,0,0-.052.454,1.7,1.7,0,0,0,.613,1.306,2.067,2.067,0,0,0,1.236.516h0a1.962,1.962,0,0,0,1.305-.613,2.373,2.373,0,0,0,.582-1.655,4.008,4.008,0,0,0-.12-.935c-.013-.049-.028-.1-.044-.143l.138,0a2.758,2.758,0,0,1,1.392.324.6.6,0,0,0,.151.063,11.363,11.363,0,0,0-.221,2.209,11.378,11.378,0,0,0,.319,2.675h0l.011.04a11.675,11.675,0,0,0,.965,2.571,13.662,13.662,0,0,0,2.467,3.735,7.112,7.112,0,0,1,1.915,4.577v.38c0,.017,0,.032,0,.049v.008h0a.835.835,0,0,0,.833.779h5.1a.836.836,0,0,0,.835-.835v-1.259a16.915,16.915,0,0,0,2.263.151,16.965,16.965,0,0,0,1.776-.094v1.2a.836.836,0,0,0,.835.835h5.1a.836.836,0,0,0,.836-.835v-1.26a5.027,5.027,0,0,1,1.722-3.5c.066-.057.133-.114.2-.173l.026-.022,0,0a12.576,12.576,0,0,0,3.717-5.678h1.068a1.544,1.544,0,0,0,1.544-1.544v-3.807A1.542,1.542,0,0,0-283.715,1875.4Zm-32.7,2.757a.657.657,0,0,1-.472.179.8.8,0,0,1-.491-.163.41.41,0,0,1-.17-.337.6.6,0,0,1,.02-.147,1.53,1.53,0,0,1,.848-.953,2.633,2.633,0,0,1,.312-.14c.007.011.014.022.022.034a.681.681,0,0,1,.077.152,2.815,2.815,0,0,1,.087.656A.959.959,0,0,1-316.411,1878.159Zm18.126,8.339v1.337c0,.317-.106.51-.509.51h-1.373c-.4,0-.509-.193-.509-.51v-1.372c-1.83-.387-3.518-1.6-3.518-3.605,0-.4.106-.493.51-.493h1.706c.4,0,.6.053.633.493a1.215,1.215,0,0,0,.334.721,2.311,2.311,0,0,0,1.724.579c.95,0,1.723-.21,1.723-1.2s-1.565-1-3.06-1.478c-1.776-.562-3.412-1.266-3.412-3.5,0-1.971,1.53-3.06,3.36-3.395v-1.354c0-.317.105-.51.509-.51h1.373c.4,0,.51.193.51.51v1.407c1.706.352,3.2,1.371,3.2,3.183,0,.422-.106.492-.509.492h-1.724c-.335,0-.387-.246-.475-.475a1.2,1.2,0,0,0-.369-.527,2.338,2.338,0,0,0-1.5-.475c-.58,0-1.547.228-1.547,1.02,0,1.073,2.586,1.459,3.288,1.741,1.267.388,3.131.9,3.131,3.289C-294.785,1885-296.21,1886.2-298.285,1886.5Zm2.939-16.388a10.252,10.252,0,0,0-10,1.128c-.92.686-2.048-.246-.913-1.116a8.928,8.928,0,0,1,3.148-1.571,13.72,13.72,0,0,1,8.22.191A.721.721,0,1,1-295.346,1870.11Zm5.264,5.563a1.26,1.26,0,0,1-1.261-1.26,1.261,1.261,0,0,1,1.261-1.261,1.261,1.261,0,0,1,1.26,1.261A1.26,1.26,0,0,1-290.082,1875.673Z" transform="translate(319.471 -1864.73)"/>
</svg>
