<svg xmlns="http://www.w3.org/2000/svg" width="31.476" height="30" viewBox="0 0 31.476 30">
  <path id="Trazado_43" data-name="Trazado 43" d="M2368.236,447.347a15.457,15.457,0,0,0-8.108-8.107,5.773,5.773,0,0,1,8.108,8.107m-.236,6.391a14.2,14.2,0,0,1-3.9,9.778l2,1.994a1.459,1.459,0,1,1-2.063,2.064l-2.143-2.142a14.222,14.222,0,0,1-16.294.01l-2.128,2.128a1.475,1.475,0,0,1-2.087-2.087l1.979-1.979A14.257,14.257,0,1,1,2368,453.738m-14.262-11.311a11.311,11.311,0,1,0,11.311,11.311,11.312,11.312,0,0,0-11.311-11.311m5.9,12.787h-5.9a1.476,1.476,0,0,1-1.476-1.475v-7.869a1.475,1.475,0,0,1,2.951,0v6.393h4.426a1.475,1.475,0,1,1,0,2.951m-20.373-7.666a5.9,5.9,0,0,1,8.281-8.281,15.793,15.793,0,0,0-8.281,8.281" transform="translate(-2338 -438)" fill="#ee3124" fill-rule="evenodd"/>
</svg>
