<?xml version="1.0" encoding="utf-8"?>
<!-- Generator: Adobe Illustrator 23.0.2, SVG Export Plug-In . SVG Version: 6.00 Build 0)  -->
<svg version="1.1" id="Capa_1" xmlns="http://www.w3.org/2000/svg" xmlns:xlink="http://www.w3.org/1999/xlink" x="0px" y="0px"
	 viewBox="0 0 300 130" style="enable-background:new 0 0 300 130;" xml:space="preserve">
<style type="text/css">
	.st0{fill:#FFFFFF;}
</style>
<g>
	<path class="st0" d="M169.9,32.2c-1.3,5.1-2.6,9.9-3.9,14.7c-1.7,6.3-3.3,12.6-4.9,19c-0.2,0.7-0.4,0.9-1.2,0.9
		c-2.7-0.1-5.4,0-8.2,0c-0.7,0-0.9-0.2-1.1-0.9c-2.9-11-5.7-22-8.6-33c-0.1-0.2,0-0.5-0.3-0.6c-0.5,4.2-1.1,8.3-1.6,12.4
		c-0.9,6.9-1.8,13.8-2.7,20.6c-0.2,1.4-0.2,1.4-1.6,1.4c-2.6,0-5.1,0-7.7,0c-0.7,0-0.8-0.2-0.8-0.9c0.9-6.4,1.7-12.8,2.5-19.2
		c0.8-6.2,1.6-12.5,2.4-18.7c0.5-3.8,1-7.6,1.5-11.4c0.1-0.4,0.1-0.8,0.6-0.7c3.1,0.1,6.2-0.1,9.3,0.1c2.7,0.2,4.2,1.7,4.9,4.1
		c1,3.6,1.9,7.1,2.8,10.7c1.4,5.3,2.8,10.7,4.2,16c0,0.2,0.1,0.4,0.3,0.7c1.1-4.2,2.2-8.3,3.2-12.3c1.2-4.7,2.5-9.4,3.7-14.1
		c0.1-0.3,0.1-0.5,0.2-0.8c1-3.1,2.4-4.3,5.6-4.4c2.9-0.1,5.8,0,8.7,0c0.6,0,0.6,0.3,0.7,0.7c0.5,3.7,0.9,7.4,1.4,11.1
		c0.9,6.8,1.8,13.6,2.7,20.4c0.8,6,1.6,12,2.3,18c0.1,0.5-0.1,0.6-0.6,0.6c-2.9,0-5.8,0-8.7,0c-0.6,0-0.6-0.3-0.7-0.7
		c-0.6-4.9-1.3-9.7-1.9-14.6c-0.8-6.3-1.6-12.5-2.4-18.8C170.1,32.6,170.1,32.5,169.9,32.2z"/>
	<path class="st0" d="M250.4,48.4c-3.8,0-7.7,0-11.5,0c-0.7,0-0.9,0.2-0.8,0.9c0.1,1.1,0.2,2.2,0.5,3.3c1.1,4,3.7,6.2,7.9,6.6
		c3.1,0.3,6.1-0.2,9.2-0.7c0.2,0,0.4-0.1,0.6-0.1c2.7-0.3,3.9,0.7,4,3.5c0,0.3,0,0.5,0,0.8c0,2.6,0,2.6-2.5,3.3
		c-5.4,1.5-10.9,2-16.5,0.8c-7.3-1.5-12-5.9-13.7-13.2c-1.4-6.2-1.2-12.2,1.8-18c2.8-5.4,7.3-8.5,13.3-9.3c3.9-0.5,7.7-0.3,11.3,1.3
		c4.6,2,7.1,5.7,8.3,10.5c0.8,3.1,0.9,6.3,0.6,9.6c-0.1,0.7-0.3,0.8-1,0.8C258.1,48.4,254.2,48.4,250.4,48.4z M245.2,42.1
		c1.8,0,3.7,0,5.5,0c1.6,0,1.6,0,1.5-1.6c-0.3-2.5-1.2-4.7-3.6-5.8c-2.4-1.1-4.7-0.8-6.9,0.6c-2.2,1.5-2.9,3.8-3.3,6.2
		c-0.1,0.6,0.2,0.5,0.6,0.5C241.1,42,243.2,42.1,245.2,42.1z"/>
	<path class="st0" d="M112.1,48.4c-3.8,0-7.6,0-11.4,0c-0.8,0-1,0.2-1,1c0.1,1.1,0.2,2.3,0.5,3.4c1,3.8,3.8,6,7.8,6.4
		c3.2,0.3,6.3-0.2,9.4-0.7c0.5-0.1,1-0.1,1.5-0.1c1.7,0,2.7,0.8,2.9,2.5c0.2,1.2,0.1,2.5,0.2,3.7c0,0.5-0.3,0.6-0.7,0.8
		c-2.3,0.8-4.6,1.4-7,1.7c-4.5,0.5-8.9,0.5-13.2-0.8c-6.2-1.9-10-6-11.6-12.2c-1.3-5.1-1.3-10.3,0.4-15.4
		c2.6-7.9,8.9-12.5,17.3-12.7c3.4,0,6.6,0.4,9.6,2c4.5,2.4,6.6,6.5,7.6,11.3c0.5,2.7,0.5,5.4,0.3,8.1c-0.1,0.7-0.3,0.9-1,0.9
		C119.7,48.4,115.9,48.4,112.1,48.4z M106.9,42.1c1.6,0,3.3,0,4.9,0c2.3,0,2.3,0,1.9-2.3c-0.5-3-2.4-5.1-5.1-5.6
		c-3-0.5-5.9,0.9-7.3,3.5c-0.6,1.1-0.9,2.3-1.1,3.5c-0.1,0.7,0,0.9,0.7,0.9C102.8,42,104.9,42.1,106.9,42.1z"/>
	<path class="st0" d="M92.2,26.7c-1.4,2.1-2.5,4-4,5.7c-2.1,2.6-4.9,3.3-8.1,3.3c-1.9,0-1.9,0-1.9,1.9c0,9.4,0,18.7,0,28.1
		c0,0.9-0.2,1.1-1.1,1.1c-2.9-0.1-5.9-0.1-8.8,0c-1.1,0-1.2-0.3-1.2-1.3c0-9.6,0-19.1,0-28.7c0-0.9-0.2-1.3-1.2-1.2
		c-1.4,0.1-2.9,0-4.3,0c-0.6,0-0.7-0.2-0.7-0.7c0-2.5,0-5,0-7.6c0-0.5,0.1-0.7,0.7-0.7c1.5,0,3,0,4.5,0c0.8,0,1-0.2,1-1
		c-0.1-2.3-0.1-4.5,0.4-6.8c1.1-4.8,4.4-7.8,9.5-8.6c3.8-0.6,7.6-0.3,11.4,0.6c0.5,0.1,0.7,0.3,0.7,0.9c0,2.2,0,4.3,0,6.5
		c0,0.8-0.3,0.8-0.9,0.6c-1.8-0.5-3.7-0.6-5.5-0.5c-2.7,0.2-4.2,1.7-4.4,4.4c-0.1,0.9,0,1.9-0.1,2.8c-0.1,0.8,0.2,1,1,1
		c3.9-0.1,7.9,0,11.8,0C91.4,26.7,91.7,26.7,92.2,26.7z"/>
	<path class="st0" d="M282.1,26.1c3.6,0,6.6,0.4,9.6,1.2c0.8,0.2,1.3,0.5,1.2,1.5c-0.1,1.1,0,2.2-0.2,3.2c-0.3,1.8-1.2,2.7-3.1,2.6
		c-1.9-0.1-3.8-0.4-5.7-0.5c-1.5-0.1-3,0-4.5,0.4c-1.3,0.4-2.1,1.2-2.3,2.6c-0.1,1.4,0.5,2.4,1.7,3.1c1.5,0.9,3.3,1.3,5,1.8
		c2.2,0.7,4.3,1.4,6.2,2.6c4.5,2.7,6,6.9,5.4,11.7c-0.6,5.7-4.3,9.4-10.5,10.6c-5.8,1.1-11.5,0.5-17.1-1.4c-0.6-0.2-0.9-0.5-0.8-1.2
		c0.1-1.2-0.1-2.4,0.2-3.5c0.3-1.4,1.1-2.1,2.6-2.2c2-0.1,3.9,0.5,5.8,0.7c2.3,0.2,4.5,0.4,6.7-0.3c2.1-0.6,3.1-2.5,2.6-4.4
		c-0.3-1-1-1.7-1.9-2.1c-1.9-1-4-1.5-6.1-2.1c-2.8-0.9-5.5-2.1-7.5-4.4c-5.3-6.3-2.5-16.2,5.3-18.7C277.4,26.3,280,26,282.1,26.1z"
		/>
	<path class="st0" d="M40.4,57.8c-1.6,2.3-2.8,4.6-4.6,6.5c-1.7,1.7-3.8,2.5-6.1,2.5c-6.3,0.1-12.6,0-18.9,0.1
		c-0.5,0-0.7-0.2-0.7-0.7c0-0.3,0-0.5,0-0.8c0-16.1,0-32.1,0-48.2c0-1.5-0.1-1.3,1.2-1.3c2.9,0,5.9,0,8.8,0c0.9,0,1.1,0.2,1.1,1.1
		c0,13.2,0,26.3,0,39.5c0,1,0.3,1.3,1.3,1.3c5.5,0,11.1,0,16.6,0C39.5,57.8,39.8,57.8,40.4,57.8z"/>
	<path class="st0" d="M221.8,39.1c0,8.9,0,17.8,0,26.6c0,0.9-0.2,1.1-1.1,1.1c-3-0.1-6,0-8.9,0c-0.6,0-0.9-0.1-0.9-0.8
		c0-18,0-36,0-54c0-0.7,0.2-0.8,0.8-0.8c3,0,6.1,0,9.1,0c0.8,0,1,0.2,1,1C221.7,21.2,221.8,30.1,221.8,39.1z"/>
	<path class="st0" d="M191.3,46.7c0-6.4,0-12.7,0-19.1c0-0.8,0.2-1,1-1c3.1,0,6.2,0,9.2,0c0.8,0,0.9,0.2,0.9,0.9
		c0,12.8,0,25.5,0,38.3c0,0.7-0.2,0.9-0.9,0.9c-3.1,0-6.2,0-9.3,0c-0.8,0-0.9-0.2-0.9-0.9C191.3,59.5,191.3,53.1,191.3,46.7z"/>
	<path class="st0" d="M55.5,46.8c0,6.4,0,12.7,0,19.1c0,0.7-0.2,1-1,1c-3.1-0.1-6.2,0-9.2,0c-0.7,0-0.9-0.2-0.9-0.9
		c0-12.8,0-25.6,0-38.4c0-0.6,0.2-0.8,0.8-0.8c3.1,0,6.2,0,9.3,0c0.8,0,0.9,0.2,0.9,0.9C55.4,34,55.4,40.4,55.5,46.8
		C55.4,46.8,55.5,46.8,55.5,46.8z"/>
	<path class="st0" d="M43.4,15c0-3.5,2.9-6.3,6.6-6.3c3.6,0,6.5,2.8,6.5,6.2c0,3.6-2.9,6.4-6.5,6.4C46.3,21.3,43.4,18.5,43.4,15z"/>
	<path class="st0" d="M67.3,123.5c-12.3-0.3-24.5-1.1-36.6-3.8c-6.5-1.4-12.9-3.3-18.7-6.7c-1.7-1-3.3-2.2-4.6-3.8
		c-2.5-3.1-2.4-6.3,0.3-9.2c2.4-2.6,5.4-4.2,8.5-5.5c6.1-2.7,12.6-4.3,19.1-5.4c12.7-2.3,25.4-3,38.3-2.6c11.1,0.3,22,1.4,32.8,4.1
		c6,1.5,11.9,3.3,17.2,6.7c1.2,0.8,2.3,1.6,3.2,2.7c2.9,3.2,2.9,6.7-0.2,9.9c-2.5,2.5-5.5,4.1-8.8,5.5c-6.5,2.7-13.2,4.3-20.1,5.5
		c-7.4,1.3-14.8,1.9-22.3,2.3C72.8,123.3,70.1,123.5,67.3,123.5z"/>
	<path class="st0" d="M155.8,95c-7.6-0.1-15.2-0.7-22.5-2.9c-1.8-0.5-3.5-1.3-5.1-2.2c-0.7-0.4-1.3-0.8-1.8-1.3
		c-1.9-1.8-1.9-3.8,0-5.5c1.8-1.6,4-2.5,6.2-3.3c5.4-1.8,11.1-2.6,16.8-3c7.9-0.5,15.8-0.2,23.6,1.3c3.4,0.7,6.8,1.5,10,3.2
		c1.3,0.7,2.5,1.5,3.3,2.7c0.8,1.2,0.7,2.4-0.1,3.6c-0.8,1.2-1.9,1.9-3.2,2.6c-4.1,2.2-8.5,3.1-13,3.8C165.3,94.7,160.6,95,155.8,95
		z"/>
	<path class="st0" d="M197.3,80.3c-2.9,0-5.7-0.3-8.4-1.1c-0.7-0.2-1.4-0.5-2-0.8c-0.7-0.3-1.4-0.8-1.4-1.6c0-0.9,0.7-1.3,1.4-1.7
		c0.7-0.3,1.4-0.7,2.1-0.9c6-1.5,12-1.6,17.9,0.3c0.6,0.2,1.1,0.5,1.6,0.9c1.1,0.9,1.1,1.8,0,2.6c-1.2,0.9-2.7,1.3-4.1,1.6
		c-0.8,0.2-1.7,0.3-2.5,0.4C200.3,80.2,198.8,80.3,197.3,80.3z"/>
	<path class="st0" d="M197.3,21.3c-3.7,0-6.6-2.8-6.6-6.4c0-3.5,2.9-6.3,6.6-6.3c3.7,0,6.6,2.8,6.6,6.3
		C203.9,18.5,201,21.3,197.3,21.3z"/>
</g>
</svg>
